<?xml version="1.0" encoding="UTF-8" standalone="no"?>
<!DOCTYPE svg PUBLIC "-//W3C//DTD SVG 1.1//EN"
 "http://www.w3.org/Graphics/SVG/1.1/DTD/svg11.dtd">
<!-- Generated by graphviz version 2.47.3 (20210619.1520)
 -->
<!-- Title: dependencies Pages: 1 -->
<svg width="1274pt" height="247pt"
 viewBox="0.00 0.00 1274.00 246.80" xmlns="http://www.w3.org/2000/svg" xmlns:xlink="http://www.w3.org/1999/xlink">
<g id="graph0" class="graph" transform="scale(1 1) rotate(0) translate(4 242.8)">
<title>dependencies</title>
<polygon fill="white" stroke="transparent" points="-4,4 -4,-242.8 1270,-242.8 1270,4 -4,4"/>
<text text-anchor="middle" x="633" y="-8.2" font-family="sans-serif" font-size="14.00">dependencies</text>
<g id="clust1" class="cluster">
<title>cluster_WidgetModule</title>
<polygon fill="none" stroke="black" stroke-dasharray="1,5" points="8,-32.8 8,-230.8 1258,-230.8 1258,-32.8 8,-32.8"/>
</g>
<g id="clust10" class="cluster">
<title>cluster_WidgetModule_imports</title>
<polygon fill="none" stroke="black" points="1123,-40.8 1123,-92.8 1237,-92.8 1237,-40.8 1123,-40.8"/>
</g>
<g id="clust11" class="cluster">
<title>cluster_WidgetModule_exports</title>
<polygon fill="none" stroke="black" points="16,-170.8 16,-222.8 1250,-222.8 1250,-170.8 16,-170.8"/>
</g>
<g id="clust2" class="cluster">
<title>cluster_WidgetModule_declarations</title>
<polygon fill="none" stroke="black" points="28,-40.8 28,-92.8 1115,-92.8 1115,-40.8 28,-40.8"/>
</g>
<!-- AppMatTabComponent -->
<g id="node1" class="node">
<title>AppMatTabComponent</title>
<polygon fill="#ffffb3" stroke="black" points="1106.76,-84.8 957.24,-84.8 957.24,-48.8 1106.76,-48.8 1106.76,-84.8"/>
<text text-anchor="middle" x="1032" y="-62.6" font-family="Times,serif" font-size="14.00">AppMatTabComponent</text>
</g>
<!-- WidgetModule -->
<g id="node8" class="node">
<title>WidgetModule</title>
<polygon fill="#8dd3c7" stroke="black" points="678.26,-149.8 675.26,-153.8 654.26,-153.8 651.26,-149.8 577.74,-149.8 577.74,-113.8 678.26,-113.8 678.26,-149.8"/>
<text text-anchor="middle" x="628" y="-127.6" font-family="Times,serif" font-size="14.00">WidgetModule</text>
</g>
<!-- AppMatTabComponent&#45;&gt;WidgetModule -->
<g id="edge1" class="edge">
<title>AppMatTabComponent&#45;&gt;WidgetModule</title>
<path fill="none" stroke="black" d="M999.23,-85.1C999.23,-103.07 999.23,-127.8 999.23,-127.8 999.23,-127.8 688.45,-127.8 688.45,-127.8"/>
<polygon fill="black" stroke="black" points="688.45,-124.3 678.45,-127.8 688.45,-131.3 688.45,-124.3"/>
</g>
<!-- ListComponent -->
<g id="node2" class="node">
<title>ListComponent</title>
<polygon fill="#ffffb3" stroke="black" points="939.61,-84.8 836.39,-84.8 836.39,-48.8 939.61,-48.8 939.61,-84.8"/>
<text text-anchor="middle" x="888" y="-62.6" font-family="Times,serif" font-size="14.00">ListComponent</text>
</g>
<!-- ListComponent&#45;&gt;WidgetModule -->
<g id="edge2" class="edge">
<title>ListComponent&#45;&gt;WidgetModule</title>
<path fill="none" stroke="black" d="M888,-84.83C888,-101.2 888,-122.8 888,-122.8 888,-122.8 688.44,-122.8 688.44,-122.8"/>
<polygon fill="black" stroke="black" points="688.44,-119.3 678.44,-122.8 688.44,-126.3 688.44,-119.3"/>
</g>
<!-- LoadingComponent -->
<g id="node3" class="node">
<title>LoadingComponent</title>
<polygon fill="#ffffb3" stroke="black" points="817.99,-84.8 690.01,-84.8 690.01,-48.8 817.99,-48.8 817.99,-84.8"/>
<text text-anchor="middle" x="754" y="-62.6" font-family="Times,serif" font-size="14.00">LoadingComponent</text>
</g>
<!-- LoadingComponent&#45;&gt;WidgetModule -->
<g id="edge3" class="edge">
<title>LoadingComponent&#45;&gt;WidgetModule</title>
<path fill="none" stroke="black" d="M742.98,-84.99C742.98,-99.98 742.98,-118.8 742.98,-118.8 742.98,-118.8 688.43,-118.8 688.43,-118.8"/>
<polygon fill="black" stroke="black" points="688.43,-115.3 678.43,-118.8 688.43,-122.3 688.43,-115.3"/>
</g>
<!-- QuickNavigationMenuComponent -->
<g id="node4" class="node">
<title>QuickNavigationMenuComponent</title>
<polygon fill="#ffffb3" stroke="black" points="672.41,-84.8 461.59,-84.8 461.59,-48.8 672.41,-48.8 672.41,-84.8"/>
<text text-anchor="middle" x="567" y="-62.6" font-family="Times,serif" font-size="14.00">QuickNavigationMenuComponent</text>
</g>
<!-- QuickNavigationMenuComponent&#45;&gt;WidgetModule -->
<g id="edge4" class="edge">
<title>QuickNavigationMenuComponent&#45;&gt;WidgetModule</title>
<path fill="none" stroke="black" d="M624.91,-84.91C624.91,-84.91 624.91,-103.79 624.91,-103.79"/>
<polygon fill="black" stroke="black" points="621.41,-103.79 624.91,-113.79 628.41,-103.79 621.41,-103.79"/>
</g>
<!-- RootLayoutComponent -->
<g id="node5" class="node">
<title>RootLayoutComponent</title>
<polygon fill="#ffffb3" stroke="black" points="444.22,-84.8 295.78,-84.8 295.78,-48.8 444.22,-48.8 444.22,-84.8"/>
<text text-anchor="middle" x="370" y="-62.6" font-family="Times,serif" font-size="14.00">RootLayoutComponent</text>
</g>
<!-- RootLayoutComponent&#45;&gt;WidgetModule -->
<g id="edge5" class="edge">
<title>RootLayoutComponent&#45;&gt;WidgetModule</title>
<path fill="none" stroke="black" d="M428.12,-84.99C428.12,-99.98 428.12,-118.8 428.12,-118.8 428.12,-118.8 567.56,-118.8 567.56,-118.8"/>
<polygon fill="black" stroke="black" points="567.56,-122.3 577.56,-118.8 567.56,-115.3 567.56,-122.3"/>
</g>
<!-- StudentSearchComponent -->
<g id="node6" class="node">
<title>StudentSearchComponent</title>
<polygon fill="#ffffb3" stroke="black" points="278.2,-84.8 115.8,-84.8 115.8,-48.8 278.2,-48.8 278.2,-84.8"/>
<text text-anchor="middle" x="197" y="-62.6" font-family="Times,serif" font-size="14.00">StudentSearchComponent</text>
</g>
<!-- StudentSearchComponent&#45;&gt;WidgetModule -->
<g id="edge6" class="edge">
<title>StudentSearchComponent&#45;&gt;WidgetModule</title>
<path fill="none" stroke="black" d="M221.2,-84.83C221.2,-101.2 221.2,-122.8 221.2,-122.8 221.2,-122.8 567.71,-122.8 567.71,-122.8"/>
<polygon fill="black" stroke="black" points="567.71,-126.3 577.71,-122.8 567.71,-119.3 567.71,-126.3"/>
</g>
<!-- TabPipe -->
<g id="node7" class="node">
<title>TabPipe</title>
<polygon fill="#ffffb3" stroke="black" points="98.16,-84.8 35.84,-84.8 35.84,-48.8 98.16,-48.8 98.16,-84.8"/>
<text text-anchor="middle" x="67" y="-62.6" font-family="Times,serif" font-size="14.00">TabPipe</text>
</g>
<!-- TabPipe&#45;&gt;WidgetModule -->
<g id="edge7" class="edge">
<title>TabPipe&#45;&gt;WidgetModule</title>
<path fill="none" stroke="black" d="M94.2,-85.1C94.2,-103.07 94.2,-127.8 94.2,-127.8 94.2,-127.8 567.3,-127.8 567.3,-127.8"/>
<polygon fill="black" stroke="black" points="567.3,-131.3 577.3,-127.8 567.3,-124.3 567.3,-131.3"/>
</g>
<!-- AppMatTabComponent  -->
<g id="node10" class="node">
<title>AppMatTabComponent </title>
<polygon fill="#fb8072" stroke="black" points="1241.76,-214.8 1088.24,-214.8 1088.24,-178.8 1241.76,-178.8 1241.76,-214.8"/>
<text text-anchor="middle" x="1165" y="-192.6" font-family="Times,serif" font-size="14.00">AppMatTabComponent </text>
</g>
<!-- WidgetModule&#45;&gt;AppMatTabComponent  -->
<g id="edge9" class="edge">
<title>WidgetModule&#45;&gt;AppMatTabComponent </title>
<path fill="none" stroke="black" stroke-dasharray="5,2" d="M678.7,-136.8C800.14,-136.8 1097.62,-136.8 1097.62,-136.8 1097.62,-136.8 1097.62,-168.8 1097.62,-168.8"/>
<polygon fill="black" stroke="black" points="1094.13,-168.8 1097.62,-178.8 1101.13,-168.8 1094.13,-168.8"/>
</g>
<!-- ListComponent  -->
<g id="node11" class="node">
<title>ListComponent </title>
<polygon fill="#fb8072" stroke="black" points="1070.11,-214.8 963.89,-214.8 963.89,-178.8 1070.11,-178.8 1070.11,-214.8"/>
<text text-anchor="middle" x="1017" y="-192.6" font-family="Times,serif" font-size="14.00">ListComponent </text>
</g>
<!-- WidgetModule&#45;&gt;ListComponent  -->
<g id="edge10" class="edge">
<title>WidgetModule&#45;&gt;ListComponent </title>
<path fill="none" stroke="black" stroke-dasharray="5,2" d="M678.29,-140.8C787.12,-140.8 1034.77,-140.8 1034.77,-140.8 1034.77,-140.8 1034.77,-168.77 1034.77,-168.77"/>
<polygon fill="black" stroke="black" points="1031.27,-168.77 1034.77,-178.77 1038.27,-168.77 1031.27,-168.77"/>
</g>
<!-- LoadingComponent  -->
<g id="node12" class="node">
<title>LoadingComponent </title>
<polygon fill="#fb8072" stroke="black" points="945.99,-214.8 814.01,-214.8 814.01,-178.8 945.99,-178.8 945.99,-214.8"/>
<text text-anchor="middle" x="880" y="-192.6" font-family="Times,serif" font-size="14.00">LoadingComponent </text>
</g>
<!-- WidgetModule&#45;&gt;LoadingComponent  -->
<g id="edge11" class="edge">
<title>WidgetModule&#45;&gt;LoadingComponent </title>
<path fill="none" stroke="black" stroke-dasharray="5,2" d="M678.27,-145.8C737.29,-145.8 827.22,-145.8 827.22,-145.8 827.22,-145.8 827.22,-168.68 827.22,-168.68"/>
<polygon fill="black" stroke="black" points="823.72,-168.68 827.22,-178.68 830.72,-168.68 823.72,-168.68"/>
</g>
<!-- QuickNavigationMenuComponent  -->
<g id="node13" class="node">
<title>QuickNavigationMenuComponent </title>
<polygon fill="#fb8072" stroke="black" points="795.91,-214.8 582.09,-214.8 582.09,-178.8 795.91,-178.8 795.91,-214.8"/>
<text text-anchor="middle" x="689" y="-192.6" font-family="Times,serif" font-size="14.00">QuickNavigationMenuComponent </text>
</g>
<!-- WidgetModule&#45;&gt;QuickNavigationMenuComponent  -->
<g id="edge12" class="edge">
<title>WidgetModule&#45;&gt;QuickNavigationMenuComponent </title>
<path fill="none" stroke="black" stroke-dasharray="5,2" d="M630.21,-149.91C630.21,-149.91 630.21,-168.79 630.21,-168.79"/>
<polygon fill="black" stroke="black" points="626.71,-168.79 630.21,-178.79 633.71,-168.79 626.71,-168.79"/>
</g>
<!-- RootLayoutComponent  -->
<g id="node14" class="node">
<title>RootLayoutComponent </title>
<polygon fill="#fb8072" stroke="black" points="563.72,-214.8 412.28,-214.8 412.28,-178.8 563.72,-178.8 563.72,-214.8"/>
<text text-anchor="middle" x="488" y="-192.6" font-family="Times,serif" font-size="14.00">RootLayoutComponent </text>
</g>
<!-- WidgetModule&#45;&gt;RootLayoutComponent  -->
<g id="edge13" class="edge">
<title>WidgetModule&#45;&gt;RootLayoutComponent </title>
<path fill="none" stroke="black" stroke-dasharray="5,2" d="M577.48,-145.8C546.54,-145.8 512.83,-145.8 512.83,-145.8 512.83,-145.8 512.83,-168.68 512.83,-168.68"/>
<polygon fill="black" stroke="black" points="509.33,-168.68 512.83,-178.68 516.33,-168.68 509.33,-168.68"/>
</g>
<!-- SharedModule  -->
<g id="node15" class="node">
<title>SharedModule </title>
<polygon fill="#fb8072" stroke="black" points="393.92,-214.8 292.08,-214.8 292.08,-178.8 393.92,-178.8 393.92,-214.8"/>
<text text-anchor="middle" x="343" y="-192.6" font-family="Times,serif" font-size="14.00">SharedModule </text>
</g>
<!-- WidgetModule&#45;&gt;SharedModule  -->
<g id="edge14" class="edge">
<title>WidgetModule&#45;&gt;SharedModule </title>
<path fill="none" stroke="black" stroke-dasharray="5,2" d="M577.72,-140.8C496.37,-140.8 344.93,-140.8 344.93,-140.8 344.93,-140.8 344.93,-168.77 344.93,-168.77"/>
<polygon fill="black" stroke="black" points="341.43,-168.77 344.93,-178.77 348.43,-168.77 341.43,-168.77"/>
</g>
<!-- StudentSearchComponent  -->
<g id="node16" class="node">
<title>StudentSearchComponent </title>
<polygon fill="#fb8072" stroke="black" points="273.7,-214.8 108.3,-214.8 108.3,-178.8 273.7,-178.8 273.7,-214.8"/>
<text text-anchor="middle" x="191" y="-192.6" font-family="Times,serif" font-size="14.00">StudentSearchComponent </text>
</g>
<!-- WidgetModule&#45;&gt;StudentSearchComponent  -->
<g id="edge15" class="edge">
<title>WidgetModule&#45;&gt;StudentSearchComponent </title>
<path fill="none" stroke="black" stroke-dasharray="5,2" d="M577.52,-136.8C458.16,-136.8 168.55,-136.8 168.55,-136.8 168.55,-136.8 168.55,-168.8 168.55,-168.8"/>
<polygon fill="black" stroke="black" points="165.05,-168.8 168.55,-178.8 172.05,-168.8 165.05,-168.8"/>
</g>
<!-- TabPipe  -->
<g id="node17" class="node">
<title>TabPipe </title>
<polygon fill="#fb8072" stroke="black" points="90.16,-214.8 23.84,-214.8 23.84,-178.8 90.16,-178.8 90.16,-214.8"/>
<text text-anchor="middle" x="57" y="-192.6" font-family="Times,serif" font-size="14.00">TabPipe </text>
</g>
<!-- WidgetModule&#45;&gt;TabPipe  -->
<g id="edge16" class="edge">
<title>WidgetModule&#45;&gt;TabPipe </title>
<path fill="none" stroke="black" stroke-dasharray="5,2" d="M577.35,-131.8C438.64,-131.8 62.88,-131.8 62.88,-131.8 62.88,-131.8 62.88,-168.69 62.88,-168.69"/>
<polygon fill="black" stroke="black" points="59.38,-168.69 62.88,-178.69 66.38,-168.69 59.38,-168.69"/>
</g>
<!-- SharedModule -->
<g id="node9" class="node">
<title>SharedModule</title>
<polygon fill="#8dd3c7" stroke="black" points="1229.42,-84.8 1226.42,-88.8 1205.42,-88.8 1202.42,-84.8 1130.58,-84.8 1130.58,-48.8 1229.42,-48.8 1229.42,-84.8"/>
<text text-anchor="middle" x="1180" y="-62.6" font-family="Times,serif" font-size="14.00">SharedModule</text>
</g>
<!-- SharedModule&#45;&gt;WidgetModule -->
<g id="edge8" class="edge">
<title>SharedModule&#45;&gt;WidgetModule</title>
<path fill="none" stroke="black" d="M1180,-84.91C1180,-104.14 1180,-131.8 1180,-131.8 1180,-131.8 688.45,-131.8 688.45,-131.8"/>
<polygon fill="black" stroke="black" points="688.45,-128.3 678.45,-131.8 688.45,-135.3 688.45,-128.3"/>
</g>
</g>
</svg>
