<?xml version="1.0" encoding="UTF-8" standalone="no"?>
<!DOCTYPE svg PUBLIC "-//W3C//DTD SVG 1.1//EN"
 "http://www.w3.org/Graphics/SVG/1.1/DTD/svg11.dtd">
<!-- Generated by graphviz version 2.47.3 (20210619.1520)
 -->
<!-- Title: dependencies Pages: 1 -->
<svg width="460pt" height="247pt"
 viewBox="0.00 0.00 460.00 246.80" xmlns="http://www.w3.org/2000/svg" xmlns:xlink="http://www.w3.org/1999/xlink">
<g id="graph0" class="graph" transform="scale(1 1) rotate(0) translate(4 242.8)">
<title>dependencies</title>
<polygon fill="white" stroke="transparent" points="-4,4 -4,-242.8 456,-242.8 456,4 -4,4"/>
<text text-anchor="middle" x="226" y="-8.2" font-family="sans-serif" font-size="14.00">dependencies</text>
<g id="clust1" class="cluster">
<title>cluster_SharedModule</title>
<polygon fill="none" stroke="black" stroke-dasharray="1,5" points="8,-32.8 8,-230.8 444,-230.8 444,-32.8 8,-32.8"/>
</g>
<g id="clust2" class="cluster">
<title>cluster_SharedModule_declarations</title>
<polygon fill="none" stroke="black" points="21,-40.8 21,-92.8 431,-92.8 431,-40.8 21,-40.8"/>
</g>
<g id="clust7" class="cluster">
<title>cluster_SharedModule_exports</title>
<polygon fill="none" stroke="black" points="16,-170.8 16,-222.8 436,-222.8 436,-170.8 16,-170.8"/>
</g>
<!-- AppLoadingDirective -->
<g id="node1" class="node">
<title>AppLoadingDirective</title>
<polygon fill="#ffffb3" stroke="black" points="423.35,-84.8 284.65,-84.8 284.65,-48.8 423.35,-48.8 423.35,-84.8"/>
<text text-anchor="middle" x="354" y="-62.6" font-family="Times,serif" font-size="14.00">AppLoadingDirective</text>
</g>
<!-- SharedModule -->
<g id="node4" class="node">
<title>SharedModule</title>
<polygon fill="#8dd3c7" stroke="black" points="253.42,-149.8 250.42,-153.8 229.42,-153.8 226.42,-149.8 154.58,-149.8 154.58,-113.8 253.42,-113.8 253.42,-149.8"/>
<text text-anchor="middle" x="204" y="-127.6" font-family="Times,serif" font-size="14.00">SharedModule</text>
</g>
<!-- AppLoadingDirective&#45;&gt;SharedModule -->
<g id="edge1" class="edge">
<title>AppLoadingDirective&#45;&gt;SharedModule</title>
<path fill="none" stroke="black" d="M377.56,-84.82C377.56,-102.17 377.56,-125.8 377.56,-125.8 377.56,-125.8 263.27,-125.8 263.27,-125.8"/>
<polygon fill="black" stroke="black" points="263.27,-122.3 253.27,-125.8 263.27,-129.3 263.27,-122.3"/>
</g>
<!-- DebounceDirective -->
<g id="node2" class="node">
<title>DebounceDirective</title>
<polygon fill="#ffffb3" stroke="black" points="266.33,-84.8 141.67,-84.8 141.67,-48.8 266.33,-48.8 266.33,-84.8"/>
<text text-anchor="middle" x="204" y="-62.6" font-family="Times,serif" font-size="14.00">DebounceDirective</text>
</g>
<!-- DebounceDirective&#45;&gt;SharedModule -->
<g id="edge2" class="edge">
<title>DebounceDirective&#45;&gt;SharedModule</title>
<path fill="none" stroke="black" d="M204,-84.91C204,-84.91 204,-103.79 204,-103.79"/>
<polygon fill="black" stroke="black" points="200.5,-103.79 204,-113.79 207.5,-103.79 200.5,-103.79"/>
</g>
<!-- RoleDirective -->
<g id="node3" class="node">
<title>RoleDirective</title>
<polygon fill="#ffffb3" stroke="black" points="123.03,-84.8 28.97,-84.8 28.97,-48.8 123.03,-48.8 123.03,-84.8"/>
<text text-anchor="middle" x="76" y="-62.6" font-family="Times,serif" font-size="14.00">RoleDirective</text>
</g>
<!-- RoleDirective&#45;&gt;SharedModule -->
<g id="edge3" class="edge">
<title>RoleDirective&#45;&gt;SharedModule</title>
<path fill="none" stroke="black" d="M90.92,-84.82C90.92,-102.17 90.92,-125.8 90.92,-125.8 90.92,-125.8 144.73,-125.8 144.73,-125.8"/>
<polygon fill="black" stroke="black" points="144.73,-129.3 154.73,-125.8 144.73,-122.3 144.73,-129.3"/>
</g>
<!-- AppLoadingDirective  -->
<g id="node5" class="node">
<title>AppLoadingDirective </title>
<polygon fill="#fb8072" stroke="black" points="428.35,-214.8 285.65,-214.8 285.65,-178.8 428.35,-178.8 428.35,-214.8"/>
<text text-anchor="middle" x="357" y="-192.6" font-family="Times,serif" font-size="14.00">AppLoadingDirective </text>
</g>
<!-- SharedModule&#45;&gt;AppLoadingDirective  -->
<g id="edge4" class="edge">
<title>SharedModule&#45;&gt;AppLoadingDirective </title>
<path fill="none" stroke="black" stroke-dasharray="5,2" d="M253.37,-137.8C289.3,-137.8 331.69,-137.8 331.69,-137.8 331.69,-137.8 331.69,-168.78 331.69,-168.78"/>
<polygon fill="black" stroke="black" points="328.19,-168.78 331.69,-178.78 335.19,-168.78 328.19,-168.78"/>
</g>
<!-- DebounceDirective  -->
<g id="node6" class="node">
<title>DebounceDirective </title>
<polygon fill="#fb8072" stroke="black" points="268.33,-214.8 139.67,-214.8 139.67,-178.8 268.33,-178.8 268.33,-214.8"/>
<text text-anchor="middle" x="204" y="-192.6" font-family="Times,serif" font-size="14.00">DebounceDirective </text>
</g>
<!-- SharedModule&#45;&gt;DebounceDirective  -->
<g id="edge5" class="edge">
<title>SharedModule&#45;&gt;DebounceDirective </title>
<path fill="none" stroke="black" stroke-dasharray="5,2" d="M204,-149.91C204,-149.91 204,-168.79 204,-168.79"/>
<polygon fill="black" stroke="black" points="200.5,-168.79 204,-178.79 207.5,-168.79 200.5,-168.79"/>
</g>
<!-- RoleDirective  -->
<g id="node7" class="node">
<title>RoleDirective </title>
<polygon fill="#fb8072" stroke="black" points="122.02,-214.8 23.98,-214.8 23.98,-178.8 122.02,-178.8 122.02,-214.8"/>
<text text-anchor="middle" x="73" y="-192.6" font-family="Times,serif" font-size="14.00">RoleDirective </text>
</g>
<!-- SharedModule&#45;&gt;RoleDirective  -->
<g id="edge6" class="edge">
<title>SharedModule&#45;&gt;RoleDirective </title>
<path fill="none" stroke="black" stroke-dasharray="5,2" d="M154.79,-137.8C113.02,-137.8 59.83,-137.8 59.83,-137.8 59.83,-137.8 59.83,-168.78 59.83,-168.78"/>
<polygon fill="black" stroke="black" points="56.33,-168.78 59.83,-178.78 63.33,-168.78 56.33,-168.78"/>
</g>
</g>
</svg>
