<?xml version="1.0" encoding="UTF-8" standalone="no"?>
<!DOCTYPE svg PUBLIC "-//W3C//DTD SVG 1.1//EN"
 "http://www.w3.org/Graphics/SVG/1.1/DTD/svg11.dtd">
<!-- Generated by graphviz version 2.47.3 (20210619.1520)
 -->
<!-- Title: dependencies Pages: 1 -->
<svg width="1205pt" height="174pt"
 viewBox="0.00 0.00 1205.00 173.80" xmlns="http://www.w3.org/2000/svg" xmlns:xlink="http://www.w3.org/1999/xlink">
<g id="graph0" class="graph" transform="scale(1 1) rotate(0) translate(4 169.8)">
<title>dependencies</title>
<polygon fill="white" stroke="transparent" points="-4,4 -4,-169.8 1201,-169.8 1201,4 -4,4"/>
<text text-anchor="middle" x="598.5" y="-8.2" font-family="sans-serif" font-size="14.00">dependencies</text>
<g id="clust1" class="cluster">
<title>cluster_SettingsModule</title>
<polygon fill="none" stroke="black" stroke-dasharray="1,5" points="8,-32.8 8,-157.8 1189,-157.8 1189,-32.8 8,-32.8"/>
</g>
<g id="clust2" class="cluster">
<title>cluster_SettingsModule_declarations</title>
<polygon fill="none" stroke="black" points="306,-40.8 306,-92.8 1181,-92.8 1181,-40.8 306,-40.8"/>
</g>
<g id="clust8" class="cluster">
<title>cluster_SettingsModule_imports</title>
<polygon fill="none" stroke="black" points="16,-40.8 16,-92.8 298,-92.8 298,-40.8 16,-40.8"/>
</g>
<!-- AccessCheckboxComponent -->
<g id="node1" class="node">
<title>AccessCheckboxComponent</title>
<polygon fill="#ffffb3" stroke="black" points="1172.74,-84.8 995.26,-84.8 995.26,-48.8 1172.74,-48.8 1172.74,-84.8"/>
<text text-anchor="middle" x="1084" y="-62.6" font-family="Times,serif" font-size="14.00">AccessCheckboxComponent</text>
</g>
<!-- SettingsModule -->
<g id="node6" class="node">
<title>SettingsModule</title>
<polygon fill="#8dd3c7" stroke="black" points="603.16,-149.8 600.16,-153.8 579.16,-153.8 576.16,-149.8 498.84,-149.8 498.84,-113.8 603.16,-113.8 603.16,-149.8"/>
<text text-anchor="middle" x="551" y="-127.6" font-family="Times,serif" font-size="14.00">SettingsModule</text>
</g>
<!-- AccessCheckboxComponent&#45;&gt;SettingsModule -->
<g id="edge1" class="edge">
<title>AccessCheckboxComponent&#45;&gt;SettingsModule</title>
<path fill="none" stroke="black" d="M1084,-85.09C1084,-107.01 1084,-140.8 1084,-140.8 1084,-140.8 613.56,-140.8 613.56,-140.8"/>
<polygon fill="black" stroke="black" points="613.56,-137.3 603.56,-140.8 613.56,-144.3 613.56,-137.3"/>
</g>
<!-- RolesAssignComponent -->
<g id="node2" class="node">
<title>RolesAssignComponent</title>
<polygon fill="#ffffb3" stroke="black" points="977.11,-84.8 824.89,-84.8 824.89,-48.8 977.11,-48.8 977.11,-84.8"/>
<text text-anchor="middle" x="901" y="-62.6" font-family="Times,serif" font-size="14.00">RolesAssignComponent</text>
</g>
<!-- RolesAssignComponent&#45;&gt;SettingsModule -->
<g id="edge2" class="edge">
<title>RolesAssignComponent&#45;&gt;SettingsModule</title>
<path fill="none" stroke="black" d="M901,-84.91C901,-104.14 901,-131.8 901,-131.8 901,-131.8 613.4,-131.8 613.4,-131.8"/>
<polygon fill="black" stroke="black" points="613.4,-128.3 603.4,-131.8 613.4,-135.3 613.4,-128.3"/>
</g>
<!-- RolesRulesComponent -->
<g id="node3" class="node">
<title>RolesRulesComponent</title>
<polygon fill="#ffffb3" stroke="black" points="806.61,-84.8 661.39,-84.8 661.39,-48.8 806.61,-48.8 806.61,-84.8"/>
<text text-anchor="middle" x="734" y="-62.6" font-family="Times,serif" font-size="14.00">RolesRulesComponent</text>
</g>
<!-- RolesRulesComponent&#45;&gt;SettingsModule -->
<g id="edge3" class="edge">
<title>RolesRulesComponent&#45;&gt;SettingsModule</title>
<path fill="none" stroke="black" d="M734,-84.83C734,-101.2 734,-122.8 734,-122.8 734,-122.8 613.44,-122.8 613.44,-122.8"/>
<polygon fill="black" stroke="black" points="613.44,-119.3 603.44,-122.8 613.44,-126.3 613.44,-119.3"/>
</g>
<!-- SecondarySidenavComponent -->
<g id="node4" class="node">
<title>SecondarySidenavComponent</title>
<polygon fill="#ffffb3" stroke="black" points="643.52,-84.8 458.48,-84.8 458.48,-48.8 643.52,-48.8 643.52,-84.8"/>
<text text-anchor="middle" x="551" y="-62.6" font-family="Times,serif" font-size="14.00">SecondarySidenavComponent</text>
</g>
<!-- SecondarySidenavComponent&#45;&gt;SettingsModule -->
<g id="edge4" class="edge">
<title>SecondarySidenavComponent&#45;&gt;SettingsModule</title>
<path fill="none" stroke="black" d="M551,-84.91C551,-84.91 551,-103.79 551,-103.79"/>
<polygon fill="black" stroke="black" points="547.5,-103.79 551,-113.79 554.5,-103.79 547.5,-103.79"/>
</g>
<!-- SettingsComponent -->
<g id="node5" class="node">
<title>SettingsComponent</title>
<polygon fill="#ffffb3" stroke="black" points="440.45,-84.8 313.55,-84.8 313.55,-48.8 440.45,-48.8 440.45,-84.8"/>
<text text-anchor="middle" x="377" y="-62.6" font-family="Times,serif" font-size="14.00">SettingsComponent</text>
</g>
<!-- SettingsComponent&#45;&gt;SettingsModule -->
<g id="edge5" class="edge">
<title>SettingsComponent&#45;&gt;SettingsModule</title>
<path fill="none" stroke="black" d="M377,-84.83C377,-101.2 377,-122.8 377,-122.8 377,-122.8 488.79,-122.8 488.79,-122.8"/>
<polygon fill="black" stroke="black" points="488.79,-126.3 498.79,-122.8 488.79,-119.3 488.79,-126.3"/>
</g>
<!-- SettingsRoutingModule -->
<g id="node7" class="node">
<title>SettingsRoutingModule</title>
<polygon fill="#8dd3c7" stroke="black" points="289.78,-84.8 286.78,-88.8 265.78,-88.8 262.78,-84.8 140.22,-84.8 140.22,-48.8 289.78,-48.8 289.78,-84.8"/>
<text text-anchor="middle" x="215" y="-62.6" font-family="Times,serif" font-size="14.00">SettingsRoutingModule</text>
</g>
<!-- SettingsRoutingModule&#45;&gt;SettingsModule -->
<g id="edge6" class="edge">
<title>SettingsRoutingModule&#45;&gt;SettingsModule</title>
<path fill="none" stroke="black" d="M215,-84.91C215,-104.14 215,-131.8 215,-131.8 215,-131.8 488.5,-131.8 488.5,-131.8"/>
<polygon fill="black" stroke="black" points="488.5,-135.3 498.5,-131.8 488.5,-128.3 488.5,-135.3"/>
</g>
<!-- SharedModule -->
<g id="node8" class="node">
<title>SharedModule</title>
<polygon fill="#8dd3c7" stroke="black" points="122.42,-84.8 119.42,-88.8 98.42,-88.8 95.42,-84.8 23.58,-84.8 23.58,-48.8 122.42,-48.8 122.42,-84.8"/>
<text text-anchor="middle" x="73" y="-62.6" font-family="Times,serif" font-size="14.00">SharedModule</text>
</g>
<!-- SharedModule&#45;&gt;SettingsModule -->
<g id="edge7" class="edge">
<title>SharedModule&#45;&gt;SettingsModule</title>
<path fill="none" stroke="black" d="M73,-85.09C73,-107.01 73,-140.8 73,-140.8 73,-140.8 488.48,-140.8 488.48,-140.8"/>
<polygon fill="black" stroke="black" points="488.48,-144.3 498.48,-140.8 488.48,-137.3 488.48,-144.3"/>
</g>
</g>
</svg>
