<?xml version="1.0" encoding="UTF-8" standalone="no"?>
<!DOCTYPE svg PUBLIC "-//W3C//DTD SVG 1.1//EN"
 "http://www.w3.org/Graphics/SVG/1.1/DTD/svg11.dtd">
<!-- Generated by graphviz version 2.47.3 (20210619.1520)
 -->
<!-- Title: dependencies Pages: 1 -->
<svg width="506pt" height="174pt"
 viewBox="0.00 0.00 506.00 173.80" xmlns="http://www.w3.org/2000/svg" xmlns:xlink="http://www.w3.org/1999/xlink">
<g id="graph0" class="graph" transform="scale(1 1) rotate(0) translate(4 169.8)">
<title>dependencies</title>
<polygon fill="white" stroke="transparent" points="-4,4 -4,-169.8 502,-169.8 502,4 -4,4"/>
<text text-anchor="middle" x="249" y="-8.2" font-family="sans-serif" font-size="14.00">dependencies</text>
<g id="clust1" class="cluster">
<title>cluster_DashboardModule</title>
<polygon fill="none" stroke="black" stroke-dasharray="1,5" points="8,-32.8 8,-157.8 490,-157.8 490,-32.8 8,-32.8"/>
</g>
<g id="clust4" class="cluster">
<title>cluster_DashboardModule_imports</title>
<polygon fill="none" stroke="black" points="182,-40.8 182,-92.8 482,-92.8 482,-40.8 182,-40.8"/>
</g>
<g id="clust2" class="cluster">
<title>cluster_DashboardModule_declarations</title>
<polygon fill="none" stroke="black" points="16,-40.8 16,-92.8 174,-92.8 174,-40.8 16,-40.8"/>
</g>
<!-- DashboardComponent -->
<g id="node1" class="node">
<title>DashboardComponent</title>
<polygon fill="#ffffb3" stroke="black" points="165.97,-84.8 24.03,-84.8 24.03,-48.8 165.97,-48.8 165.97,-84.8"/>
<text text-anchor="middle" x="95" y="-62.6" font-family="Times,serif" font-size="14.00">DashboardComponent</text>
</g>
<!-- DashboardModule -->
<g id="node2" class="node">
<title>DashboardModule</title>
<polygon fill="#8dd3c7" stroke="black" points="300.19,-149.8 297.19,-153.8 276.19,-153.8 273.19,-149.8 179.81,-149.8 179.81,-113.8 300.19,-113.8 300.19,-149.8"/>
<text text-anchor="middle" x="240" y="-127.6" font-family="Times,serif" font-size="14.00">DashboardModule</text>
</g>
<!-- DashboardComponent&#45;&gt;DashboardModule -->
<g id="edge1" class="edge">
<title>DashboardComponent&#45;&gt;DashboardModule</title>
<path fill="none" stroke="black" d="M166.16,-66.8C177.06,-66.8 184.76,-66.8 184.76,-66.8 184.76,-66.8 184.76,-103.69 184.76,-103.69"/>
<polygon fill="black" stroke="black" points="181.26,-103.69 184.76,-113.69 188.26,-103.69 181.26,-103.69"/>
</g>
<!-- DashboardRoutingModule -->
<g id="node3" class="node">
<title>DashboardRoutingModule</title>
<polygon fill="#8dd3c7" stroke="black" points="473.81,-84.8 470.81,-88.8 449.81,-88.8 446.81,-84.8 308.19,-84.8 308.19,-48.8 473.81,-48.8 473.81,-84.8"/>
<text text-anchor="middle" x="391" y="-62.6" font-family="Times,serif" font-size="14.00">DashboardRoutingModule</text>
</g>
<!-- DashboardRoutingModule&#45;&gt;DashboardModule -->
<g id="edge2" class="edge">
<title>DashboardRoutingModule&#45;&gt;DashboardModule</title>
<path fill="none" stroke="black" d="M308.15,-66.8C300.32,-66.8 295.24,-66.8 295.24,-66.8 295.24,-66.8 295.24,-103.69 295.24,-103.69"/>
<polygon fill="black" stroke="black" points="291.74,-103.69 295.24,-113.69 298.74,-103.69 291.74,-103.69"/>
</g>
<!-- WidgetModule -->
<g id="node4" class="node">
<title>WidgetModule</title>
<polygon fill="#8dd3c7" stroke="black" points="290.26,-84.8 287.26,-88.8 266.26,-88.8 263.26,-84.8 189.74,-84.8 189.74,-48.8 290.26,-48.8 290.26,-84.8"/>
<text text-anchor="middle" x="240" y="-62.6" font-family="Times,serif" font-size="14.00">WidgetModule</text>
</g>
<!-- WidgetModule&#45;&gt;DashboardModule -->
<g id="edge3" class="edge">
<title>WidgetModule&#45;&gt;DashboardModule</title>
<path fill="none" stroke="black" d="M240,-84.91C240,-84.91 240,-103.79 240,-103.79"/>
<polygon fill="black" stroke="black" points="236.5,-103.79 240,-113.79 243.5,-103.79 236.5,-103.79"/>
</g>
</g>
</svg>
