<?xml version="1.0" encoding="UTF-8" standalone="no"?>
<!DOCTYPE svg PUBLIC "-//W3C//DTD SVG 1.1//EN"
 "http://www.w3.org/Graphics/SVG/1.1/DTD/svg11.dtd">
<!-- Generated by graphviz version 2.47.3 (20210619.1520)
 -->
<!-- Title: dependencies Pages: 1 -->
<svg width="572pt" height="312pt"
 viewBox="0.00 0.00 572.00 311.80" xmlns="http://www.w3.org/2000/svg" xmlns:xlink="http://www.w3.org/1999/xlink">
<g id="graph0" class="graph" transform="scale(1 1) rotate(0) translate(4 307.8)">
<title>dependencies</title>
<polygon fill="white" stroke="transparent" points="-4,4 -4,-307.8 568,-307.8 568,4 -4,4"/>
<text text-anchor="middle" x="282" y="-8.2" font-family="sans-serif" font-size="14.00">dependencies</text>
<g id="clust1" class="cluster">
<title>cluster_MatCustomTableModule</title>
<polygon fill="none" stroke="black" stroke-dasharray="1,5" points="8,-32.8 8,-295.8 556,-295.8 556,-32.8 8,-32.8"/>
</g>
<g id="clust2" class="cluster">
<title>cluster_MatCustomTableModule_declarations</title>
<polygon fill="none" stroke="black" points="16,-105.8 16,-157.8 548,-157.8 548,-105.8 16,-105.8"/>
</g>
<g id="clust4" class="cluster">
<title>cluster_MatCustomTableModule_MatCustomTableComponent_providers</title>
<polygon fill="none" stroke="black" points="17,-40.8 17,-92.8 523,-92.8 523,-40.8 17,-40.8"/>
</g>
<g id="clust7" class="cluster">
<title>cluster_MatCustomTableModule_exports</title>
<polygon fill="none" stroke="black" points="171,-235.8 171,-287.8 369,-287.8 369,-235.8 171,-235.8"/>
</g>
<!-- ActionButtonsComponent -->
<g id="node1" class="node">
<title>ActionButtonsComponent</title>
<polygon fill="#ffffb3" stroke="black" points="540.5,-149.8 377.5,-149.8 377.5,-113.8 540.5,-113.8 540.5,-149.8"/>
<text text-anchor="middle" x="459" y="-127.6" font-family="Times,serif" font-size="14.00">ActionButtonsComponent</text>
</g>
<!-- MatCustomTableModule -->
<g id="node4" class="node">
<title>MatCustomTableModule</title>
<polygon fill="#8dd3c7" stroke="black" points="348.54,-214.8 345.54,-218.8 324.54,-218.8 321.54,-214.8 191.46,-214.8 191.46,-178.8 348.54,-178.8 348.54,-214.8"/>
<text text-anchor="middle" x="270" y="-192.6" font-family="Times,serif" font-size="14.00">MatCustomTableModule</text>
</g>
<!-- ActionButtonsComponent&#45;&gt;MatCustomTableModule -->
<g id="edge1" class="edge">
<title>ActionButtonsComponent&#45;&gt;MatCustomTableModule</title>
<path fill="none" stroke="black" d="M459,-149.91C459,-169.14 459,-196.8 459,-196.8 459,-196.8 358.78,-196.8 358.78,-196.8"/>
<polygon fill="black" stroke="black" points="358.78,-193.3 348.78,-196.8 358.78,-200.3 358.78,-193.3"/>
</g>
<!-- MatCustomTableComponent -->
<g id="node2" class="node">
<title>MatCustomTableComponent</title>
<polygon fill="#ffffb3" stroke="black" points="359.82,-149.8 180.18,-149.8 180.18,-113.8 359.82,-113.8 359.82,-149.8"/>
<text text-anchor="middle" x="270" y="-127.6" font-family="Times,serif" font-size="14.00">MatCustomTableComponent</text>
</g>
<!-- MatCustomTableComponent&#45;&gt;MatCustomTableModule -->
<g id="edge2" class="edge">
<title>MatCustomTableComponent&#45;&gt;MatCustomTableModule</title>
<path fill="none" stroke="black" d="M270,-149.91C270,-149.91 270,-168.79 270,-168.79"/>
<polygon fill="black" stroke="black" points="266.5,-168.79 270,-178.79 273.5,-168.79 266.5,-168.79"/>
</g>
<!-- TableActionDirective -->
<g id="node3" class="node">
<title>TableActionDirective</title>
<polygon fill="#ffffb3" stroke="black" points="162.06,-149.8 23.94,-149.8 23.94,-113.8 162.06,-113.8 162.06,-149.8"/>
<text text-anchor="middle" x="93" y="-127.6" font-family="Times,serif" font-size="14.00">TableActionDirective</text>
</g>
<!-- TableActionDirective&#45;&gt;MatCustomTableModule -->
<g id="edge4" class="edge">
<title>TableActionDirective&#45;&gt;MatCustomTableModule</title>
<path fill="none" stroke="black" d="M93,-149.91C93,-169.14 93,-196.8 93,-196.8 93,-196.8 181.33,-196.8 181.33,-196.8"/>
<polygon fill="black" stroke="black" points="181.33,-200.3 191.33,-196.8 181.33,-193.3 181.33,-200.3"/>
</g>
<!-- MatCustomTableComponent  -->
<g id="node6" class="node">
<title>MatCustomTableComponent </title>
<polygon fill="#fb8072" stroke="black" points="361.32,-279.8 178.68,-279.8 178.68,-243.8 361.32,-243.8 361.32,-279.8"/>
<text text-anchor="middle" x="270" y="-257.6" font-family="Times,serif" font-size="14.00">MatCustomTableComponent </text>
</g>
<!-- MatCustomTableModule&#45;&gt;MatCustomTableComponent  -->
<g id="edge5" class="edge">
<title>MatCustomTableModule&#45;&gt;MatCustomTableComponent </title>
<path fill="none" stroke="black" stroke-dasharray="5,2" d="M270,-214.91C270,-214.91 270,-233.79 270,-233.79"/>
<polygon fill="black" stroke="black" points="266.5,-233.79 270,-243.79 273.5,-233.79 266.5,-233.79"/>
</g>
<!-- { provide: MatPaginatorIntl, useValue: CustomPaginator() } -->
<g id="node5" class="node">
<title>{ provide: MatPaginatorIntl, useValue: CustomPaginator() }</title>
<ellipse fill="#fdb462" stroke="black" cx="270" cy="-66.8" rx="245.09" ry="18"/>
<text text-anchor="middle" x="270" y="-62.6" font-family="Times,serif" font-size="14.00">{ provide: MatPaginatorIntl, useValue: CustomPaginator() }</text>
</g>
<!-- { provide: MatPaginatorIntl, useValue: CustomPaginator() }&#45;&gt;MatCustomTableComponent -->
<g id="edge3" class="edge">
<title>{ provide: MatPaginatorIntl, useValue: CustomPaginator() }&#45;&gt;MatCustomTableComponent</title>
<path fill="none" stroke="black" d="M270,-84.91C270,-84.91 270,-103.79 270,-103.79"/>
<polygon fill="black" stroke="black" points="266.5,-103.79 270,-113.79 273.5,-103.79 266.5,-103.79"/>
</g>
</g>
</svg>
