<?xml version="1.0" encoding="UTF-8" standalone="no"?>
<!DOCTYPE svg PUBLIC "-//W3C//DTD SVG 1.1//EN"
 "http://www.w3.org/Graphics/SVG/1.1/DTD/svg11.dtd">
<!-- Generated by graphviz version 2.47.3 (20210619.1520)
 -->
<!-- Title: dependencies Pages: 1 -->
<svg width="760pt" height="174pt"
 viewBox="0.00 0.00 760.00 173.80" xmlns="http://www.w3.org/2000/svg" xmlns:xlink="http://www.w3.org/1999/xlink">
<g id="graph0" class="graph" transform="scale(1 1) rotate(0) translate(4 169.8)">
<title>dependencies</title>
<polygon fill="white" stroke="transparent" points="-4,4 -4,-169.8 756,-169.8 756,4 -4,4"/>
<text text-anchor="middle" x="376" y="-8.2" font-family="sans-serif" font-size="14.00">dependencies</text>
<g id="clust1" class="cluster">
<title>cluster_AuthModule</title>
<polygon fill="none" stroke="black" stroke-dasharray="1,5" points="8,-32.8 8,-157.8 744,-157.8 744,-32.8 8,-32.8"/>
</g>
<g id="clust2" class="cluster">
<title>cluster_AuthModule_declarations</title>
<polygon fill="none" stroke="black" points="172,-40.8 172,-92.8 736,-92.8 736,-40.8 172,-40.8"/>
</g>
<g id="clust7" class="cluster">
<title>cluster_AuthModule_imports</title>
<polygon fill="none" stroke="black" points="16,-40.8 16,-92.8 164,-92.8 164,-40.8 16,-40.8"/>
</g>
<!-- AuthComponent -->
<g id="node1" class="node">
<title>AuthComponent</title>
<polygon fill="#ffffb3" stroke="black" points="727.83,-84.8 618.17,-84.8 618.17,-48.8 727.83,-48.8 727.83,-84.8"/>
<text text-anchor="middle" x="673" y="-62.6" font-family="Times,serif" font-size="14.00">AuthComponent</text>
</g>
<!-- AuthModule -->
<g id="node5" class="node">
<title>AuthModule</title>
<polygon fill="#8dd3c7" stroke="black" points="440.55,-149.8 437.55,-153.8 416.55,-153.8 413.55,-149.8 353.45,-149.8 353.45,-113.8 440.55,-113.8 440.55,-149.8"/>
<text text-anchor="middle" x="397" y="-127.6" font-family="Times,serif" font-size="14.00">AuthModule</text>
</g>
<!-- AuthComponent&#45;&gt;AuthModule -->
<g id="edge1" class="edge">
<title>AuthComponent&#45;&gt;AuthModule</title>
<path fill="none" stroke="black" d="M673,-85.08C673,-106.12 673,-137.8 673,-137.8 673,-137.8 450.73,-137.8 450.73,-137.8"/>
<polygon fill="black" stroke="black" points="450.73,-134.3 440.73,-137.8 450.73,-141.3 450.73,-134.3"/>
</g>
<!-- LoginComponent -->
<g id="node2" class="node">
<title>LoginComponent</title>
<polygon fill="#ffffb3" stroke="black" points="600.28,-84.8 485.72,-84.8 485.72,-48.8 600.28,-48.8 600.28,-84.8"/>
<text text-anchor="middle" x="543" y="-62.6" font-family="Times,serif" font-size="14.00">LoginComponent</text>
</g>
<!-- LoginComponent&#45;&gt;AuthModule -->
<g id="edge2" class="edge">
<title>LoginComponent&#45;&gt;AuthModule</title>
<path fill="none" stroke="black" d="M543,-84.82C543,-102.17 543,-125.8 543,-125.8 543,-125.8 450.8,-125.8 450.8,-125.8"/>
<polygon fill="black" stroke="black" points="450.8,-122.3 440.8,-125.8 450.8,-129.3 450.8,-122.3"/>
</g>
<!-- LoginformComponent -->
<g id="node3" class="node">
<title>LoginformComponent</title>
<polygon fill="#ffffb3" stroke="black" points="467.99,-84.8 326.01,-84.8 326.01,-48.8 467.99,-48.8 467.99,-84.8"/>
<text text-anchor="middle" x="397" y="-62.6" font-family="Times,serif" font-size="14.00">LoginformComponent</text>
</g>
<!-- LoginformComponent&#45;&gt;AuthModule -->
<g id="edge3" class="edge">
<title>LoginformComponent&#45;&gt;AuthModule</title>
<path fill="none" stroke="black" d="M397,-84.91C397,-84.91 397,-103.79 397,-103.79"/>
<polygon fill="black" stroke="black" points="393.5,-103.79 397,-113.79 400.5,-103.79 393.5,-103.79"/>
</g>
<!-- RegisterComponent -->
<g id="node4" class="node">
<title>RegisterComponent</title>
<polygon fill="#ffffb3" stroke="black" points="307.98,-84.8 180.02,-84.8 180.02,-48.8 307.98,-48.8 307.98,-84.8"/>
<text text-anchor="middle" x="244" y="-62.6" font-family="Times,serif" font-size="14.00">RegisterComponent</text>
</g>
<!-- RegisterComponent&#45;&gt;AuthModule -->
<g id="edge4" class="edge">
<title>RegisterComponent&#45;&gt;AuthModule</title>
<path fill="none" stroke="black" d="M244,-84.82C244,-102.17 244,-125.8 244,-125.8 244,-125.8 343.16,-125.8 343.16,-125.8"/>
<polygon fill="black" stroke="black" points="343.16,-129.3 353.16,-125.8 343.16,-122.3 343.16,-129.3"/>
</g>
<!-- AuthRoutingModule -->
<g id="node6" class="node">
<title>AuthRoutingModule</title>
<polygon fill="#8dd3c7" stroke="black" points="156.17,-84.8 153.17,-88.8 132.17,-88.8 129.17,-84.8 23.83,-84.8 23.83,-48.8 156.17,-48.8 156.17,-84.8"/>
<text text-anchor="middle" x="90" y="-62.6" font-family="Times,serif" font-size="14.00">AuthRoutingModule</text>
</g>
<!-- AuthRoutingModule&#45;&gt;AuthModule -->
<g id="edge5" class="edge">
<title>AuthRoutingModule&#45;&gt;AuthModule</title>
<path fill="none" stroke="black" d="M90,-85.08C90,-106.12 90,-137.8 90,-137.8 90,-137.8 343.34,-137.8 343.34,-137.8"/>
<polygon fill="black" stroke="black" points="343.34,-141.3 353.34,-137.8 343.34,-134.3 343.34,-141.3"/>
</g>
</g>
</svg>
