<?xml version="1.0" encoding="UTF-8" standalone="no"?>
<!DOCTYPE svg PUBLIC "-//W3C//DTD SVG 1.1//EN"
 "http://www.w3.org/Graphics/SVG/1.1/DTD/svg11.dtd">
<!-- Generated by graphviz version 2.47.3 (20210619.1520)
 -->
<!-- Title: dependencies Pages: 1 -->
<svg width="882pt" height="174pt"
 viewBox="0.00 0.00 882.00 173.80" xmlns="http://www.w3.org/2000/svg" xmlns:xlink="http://www.w3.org/1999/xlink">
<g id="graph0" class="graph" transform="scale(1 1) rotate(0) translate(4 169.8)">
<title>dependencies</title>
<polygon fill="white" stroke="transparent" points="-4,4 -4,-169.8 878,-169.8 878,4 -4,4"/>
<text text-anchor="middle" x="437" y="-8.2" font-family="sans-serif" font-size="14.00">dependencies</text>
<g id="clust1" class="cluster">
<title>cluster_FeesModule</title>
<polygon fill="none" stroke="black" stroke-dasharray="1,5" points="8,-32.8 8,-157.8 866,-157.8 866,-32.8 8,-32.8"/>
</g>
<g id="clust7" class="cluster">
<title>cluster_FeesModule_imports</title>
<polygon fill="none" stroke="black" points="593,-40.8 593,-92.8 858,-92.8 858,-40.8 593,-40.8"/>
</g>
<g id="clust2" class="cluster">
<title>cluster_FeesModule_declarations</title>
<polygon fill="none" stroke="black" points="16,-40.8 16,-92.8 585,-92.8 585,-40.8 16,-40.8"/>
</g>
<!-- FeesComponent -->
<g id="node1" class="node">
<title>FeesComponent</title>
<polygon fill="#ffffb3" stroke="black" points="577.49,-84.8 470.51,-84.8 470.51,-48.8 577.49,-48.8 577.49,-84.8"/>
<text text-anchor="middle" x="524" y="-62.6" font-family="Times,serif" font-size="14.00">FeesComponent</text>
</g>
<!-- FeesModule -->
<g id="node5" class="node">
<title>FeesModule</title>
<polygon fill="#8dd3c7" stroke="black" points="496.71,-149.8 493.71,-153.8 472.71,-153.8 469.71,-149.8 411.29,-149.8 411.29,-113.8 496.71,-113.8 496.71,-149.8"/>
<text text-anchor="middle" x="454" y="-127.6" font-family="Times,serif" font-size="14.00">FeesModule</text>
</g>
<!-- FeesComponent&#45;&gt;FeesModule -->
<g id="edge1" class="edge">
<title>FeesComponent&#45;&gt;FeesModule</title>
<path fill="none" stroke="black" d="M483.55,-84.91C483.55,-84.91 483.55,-103.79 483.55,-103.79"/>
<polygon fill="black" stroke="black" points="480.05,-103.79 483.55,-113.79 487.05,-103.79 480.05,-103.79"/>
</g>
<!-- FeesformComponent -->
<g id="node2" class="node">
<title>FeesformComponent</title>
<polygon fill="#ffffb3" stroke="black" points="452.2,-84.8 317.8,-84.8 317.8,-48.8 452.2,-48.8 452.2,-84.8"/>
<text text-anchor="middle" x="385" y="-62.6" font-family="Times,serif" font-size="14.00">FeesformComponent</text>
</g>
<!-- FeesformComponent&#45;&gt;FeesModule -->
<g id="edge2" class="edge">
<title>FeesformComponent&#45;&gt;FeesModule</title>
<path fill="none" stroke="black" d="M431.75,-84.91C431.75,-84.91 431.75,-103.79 431.75,-103.79"/>
<polygon fill="black" stroke="black" points="428.25,-103.79 431.75,-113.79 435.25,-103.79 428.25,-103.79"/>
</g>
<!-- FeeslistComponent -->
<g id="node3" class="node">
<title>FeeslistComponent</title>
<polygon fill="#ffffb3" stroke="black" points="300.11,-84.8 175.89,-84.8 175.89,-48.8 300.11,-48.8 300.11,-84.8"/>
<text text-anchor="middle" x="238" y="-62.6" font-family="Times,serif" font-size="14.00">FeeslistComponent</text>
</g>
<!-- FeeslistComponent&#45;&gt;FeesModule -->
<g id="edge3" class="edge">
<title>FeeslistComponent&#45;&gt;FeesModule</title>
<path fill="none" stroke="black" d="M238,-84.82C238,-102.17 238,-125.8 238,-125.8 238,-125.8 401.33,-125.8 401.33,-125.8"/>
<polygon fill="black" stroke="black" points="401.33,-129.3 411.33,-125.8 401.33,-122.3 401.33,-129.3"/>
</g>
<!-- FeestableComponent -->
<g id="node4" class="node">
<title>FeestableComponent</title>
<polygon fill="#ffffb3" stroke="black" points="158.2,-84.8 23.8,-84.8 23.8,-48.8 158.2,-48.8 158.2,-84.8"/>
<text text-anchor="middle" x="91" y="-62.6" font-family="Times,serif" font-size="14.00">FeestableComponent</text>
</g>
<!-- FeestableComponent&#45;&gt;FeesModule -->
<g id="edge4" class="edge">
<title>FeestableComponent&#45;&gt;FeesModule</title>
<path fill="none" stroke="black" d="M91,-85.08C91,-106.12 91,-137.8 91,-137.8 91,-137.8 401.29,-137.8 401.29,-137.8"/>
<polygon fill="black" stroke="black" points="401.29,-141.3 411.29,-137.8 401.29,-134.3 401.29,-141.3"/>
</g>
<!-- FeesRoutingModule -->
<g id="node6" class="node">
<title>FeesRoutingModule</title>
<polygon fill="#8dd3c7" stroke="black" points="850.32,-84.8 847.32,-88.8 826.32,-88.8 823.32,-84.8 719.68,-84.8 719.68,-48.8 850.32,-48.8 850.32,-84.8"/>
<text text-anchor="middle" x="785" y="-62.6" font-family="Times,serif" font-size="14.00">FeesRoutingModule</text>
</g>
<!-- FeesRoutingModule&#45;&gt;FeesModule -->
<g id="edge5" class="edge">
<title>FeesRoutingModule&#45;&gt;FeesModule</title>
<path fill="none" stroke="black" d="M785,-85.08C785,-106.12 785,-137.8 785,-137.8 785,-137.8 506.93,-137.8 506.93,-137.8"/>
<polygon fill="black" stroke="black" points="506.93,-134.3 496.93,-137.8 506.93,-141.3 506.93,-134.3"/>
</g>
<!-- WidgetModule -->
<g id="node7" class="node">
<title>WidgetModule</title>
<polygon fill="#8dd3c7" stroke="black" points="701.26,-84.8 698.26,-88.8 677.26,-88.8 674.26,-84.8 600.74,-84.8 600.74,-48.8 701.26,-48.8 701.26,-84.8"/>
<text text-anchor="middle" x="651" y="-62.6" font-family="Times,serif" font-size="14.00">WidgetModule</text>
</g>
<!-- WidgetModule&#45;&gt;FeesModule -->
<g id="edge6" class="edge">
<title>WidgetModule&#45;&gt;FeesModule</title>
<path fill="none" stroke="black" d="M651,-84.82C651,-102.17 651,-125.8 651,-125.8 651,-125.8 506.75,-125.8 506.75,-125.8"/>
<polygon fill="black" stroke="black" points="506.75,-122.3 496.75,-125.8 506.75,-129.3 506.75,-122.3"/>
</g>
</g>
</svg>
