<?xml version="1.0" encoding="UTF-8" standalone="no"?>
<!DOCTYPE svg PUBLIC "-//W3C//DTD SVG 1.1//EN"
 "http://www.w3.org/Graphics/SVG/1.1/DTD/svg11.dtd">
<!-- Generated by graphviz version 2.47.3 (20210619.1520)
 -->
<!-- Title: dependencies Pages: 1 -->
<svg width="1035pt" height="174pt"
 viewBox="0.00 0.00 1035.00 173.80" xmlns="http://www.w3.org/2000/svg" xmlns:xlink="http://www.w3.org/1999/xlink">
<g id="graph0" class="graph" transform="scale(1 1) rotate(0) translate(4 169.8)">
<title>dependencies</title>
<polygon fill="white" stroke="transparent" points="-4,4 -4,-169.8 1031,-169.8 1031,4 -4,4"/>
<text text-anchor="middle" x="513.5" y="-8.2" font-family="sans-serif" font-size="14.00">dependencies</text>
<g id="clust1" class="cluster">
<title>cluster_BusRouteModule</title>
<polygon fill="none" stroke="black" stroke-dasharray="1,5" points="8,-32.8 8,-157.8 1019,-157.8 1019,-32.8 8,-32.8"/>
</g>
<g id="clust7" class="cluster">
<title>cluster_BusRouteModule_imports</title>
<polygon fill="none" stroke="black" points="717,-40.8 717,-92.8 1011,-92.8 1011,-40.8 717,-40.8"/>
</g>
<g id="clust2" class="cluster">
<title>cluster_BusRouteModule_declarations</title>
<polygon fill="none" stroke="black" points="16,-40.8 16,-92.8 709,-92.8 709,-40.8 16,-40.8"/>
</g>
<!-- BusRouteComponent -->
<g id="node1" class="node">
<title>BusRouteComponent</title>
<polygon fill="#ffffb3" stroke="black" points="701.06,-84.8 564.94,-84.8 564.94,-48.8 701.06,-48.8 701.06,-84.8"/>
<text text-anchor="middle" x="633" y="-62.6" font-family="Times,serif" font-size="14.00">BusRouteComponent</text>
</g>
<!-- BusRouteModule -->
<g id="node5" class="node">
<title>BusRouteModule</title>
<polygon fill="#8dd3c7" stroke="black" points="604.27,-149.8 601.27,-153.8 580.27,-153.8 577.27,-149.8 489.73,-149.8 489.73,-113.8 604.27,-113.8 604.27,-149.8"/>
<text text-anchor="middle" x="547" y="-127.6" font-family="Times,serif" font-size="14.00">BusRouteModule</text>
</g>
<!-- BusRouteComponent&#45;&gt;BusRouteModule -->
<g id="edge1" class="edge">
<title>BusRouteComponent&#45;&gt;BusRouteModule</title>
<path fill="none" stroke="black" d="M584.55,-84.91C584.55,-84.91 584.55,-103.79 584.55,-103.79"/>
<polygon fill="black" stroke="black" points="581.05,-103.79 584.55,-113.79 588.05,-103.79 581.05,-103.79"/>
</g>
<!-- BusRouteformsComponent -->
<g id="node2" class="node">
<title>BusRouteformsComponent</title>
<polygon fill="#ffffb3" stroke="black" points="546.71,-84.8 377.29,-84.8 377.29,-48.8 546.71,-48.8 546.71,-84.8"/>
<text text-anchor="middle" x="462" y="-62.6" font-family="Times,serif" font-size="14.00">BusRouteformsComponent</text>
</g>
<!-- BusRouteformsComponent&#45;&gt;BusRouteModule -->
<g id="edge2" class="edge">
<title>BusRouteformsComponent&#45;&gt;BusRouteModule</title>
<path fill="none" stroke="black" d="M518.11,-84.91C518.11,-84.91 518.11,-103.79 518.11,-103.79"/>
<polygon fill="black" stroke="black" points="514.61,-103.79 518.11,-113.79 521.61,-103.79 514.61,-103.79"/>
</g>
<!-- BusRoutelistComponent -->
<g id="node3" class="node">
<title>BusRoutelistComponent</title>
<polygon fill="#ffffb3" stroke="black" points="359.67,-84.8 206.33,-84.8 206.33,-48.8 359.67,-48.8 359.67,-84.8"/>
<text text-anchor="middle" x="283" y="-62.6" font-family="Times,serif" font-size="14.00">BusRoutelistComponent</text>
</g>
<!-- BusRoutelistComponent&#45;&gt;BusRouteModule -->
<g id="edge3" class="edge">
<title>BusRoutelistComponent&#45;&gt;BusRouteModule</title>
<path fill="none" stroke="black" d="M283,-84.82C283,-102.17 283,-125.8 283,-125.8 283,-125.8 479.72,-125.8 479.72,-125.8"/>
<polygon fill="black" stroke="black" points="479.72,-129.3 489.72,-125.8 479.72,-122.3 479.72,-129.3"/>
</g>
<!-- BusRoutetableComponent -->
<g id="node4" class="node">
<title>BusRoutetableComponent</title>
<polygon fill="#ffffb3" stroke="black" points="187.77,-84.8 24.23,-84.8 24.23,-48.8 187.77,-48.8 187.77,-84.8"/>
<text text-anchor="middle" x="106" y="-62.6" font-family="Times,serif" font-size="14.00">BusRoutetableComponent</text>
</g>
<!-- BusRoutetableComponent&#45;&gt;BusRouteModule -->
<g id="edge4" class="edge">
<title>BusRoutetableComponent&#45;&gt;BusRouteModule</title>
<path fill="none" stroke="black" d="M106,-85.08C106,-106.12 106,-137.8 106,-137.8 106,-137.8 479.35,-137.8 479.35,-137.8"/>
<polygon fill="black" stroke="black" points="479.35,-141.3 489.35,-137.8 479.35,-134.3 479.35,-141.3"/>
</g>
<!-- BusRouteRoutingModule -->
<g id="node6" class="node">
<title>BusRouteRoutingModule</title>
<polygon fill="#8dd3c7" stroke="black" points="1002.89,-84.8 999.89,-88.8 978.89,-88.8 975.89,-84.8 843.11,-84.8 843.11,-48.8 1002.89,-48.8 1002.89,-84.8"/>
<text text-anchor="middle" x="923" y="-62.6" font-family="Times,serif" font-size="14.00">BusRouteRoutingModule</text>
</g>
<!-- BusRouteRoutingModule&#45;&gt;BusRouteModule -->
<g id="edge5" class="edge">
<title>BusRouteRoutingModule&#45;&gt;BusRouteModule</title>
<path fill="none" stroke="black" d="M923,-85.08C923,-106.12 923,-137.8 923,-137.8 923,-137.8 614.52,-137.8 614.52,-137.8"/>
<polygon fill="black" stroke="black" points="614.52,-134.3 604.52,-137.8 614.52,-141.3 614.52,-134.3"/>
</g>
<!-- WidgetModule -->
<g id="node7" class="node">
<title>WidgetModule</title>
<polygon fill="#8dd3c7" stroke="black" points="825.26,-84.8 822.26,-88.8 801.26,-88.8 798.26,-84.8 724.74,-84.8 724.74,-48.8 825.26,-48.8 825.26,-84.8"/>
<text text-anchor="middle" x="775" y="-62.6" font-family="Times,serif" font-size="14.00">WidgetModule</text>
</g>
<!-- WidgetModule&#45;&gt;BusRouteModule -->
<g id="edge6" class="edge">
<title>WidgetModule&#45;&gt;BusRouteModule</title>
<path fill="none" stroke="black" d="M775,-84.82C775,-102.17 775,-125.8 775,-125.8 775,-125.8 614.53,-125.8 614.53,-125.8"/>
<polygon fill="black" stroke="black" points="614.53,-122.3 604.53,-125.8 614.53,-129.3 614.53,-122.3"/>
</g>
</g>
</svg>
