<?xml version="1.0" encoding="UTF-8" standalone="no"?>
<!DOCTYPE svg PUBLIC "-//W3C//DTD SVG 1.1//EN"
 "http://www.w3.org/Graphics/SVG/1.1/DTD/svg11.dtd">
<!-- Generated by graphviz version 2.47.3 (20210619.1520)
 -->
<!-- Title: dependencies Pages: 1 -->
<svg width="1304pt" height="174pt"
 viewBox="0.00 0.00 1304.00 173.80" xmlns="http://www.w3.org/2000/svg" xmlns:xlink="http://www.w3.org/1999/xlink">
<g id="graph0" class="graph" transform="scale(1 1) rotate(0) translate(4 169.8)">
<title>dependencies</title>
<polygon fill="white" stroke="transparent" points="-4,4 -4,-169.8 1300,-169.8 1300,4 -4,4"/>
<text text-anchor="middle" x="648" y="-8.2" font-family="sans-serif" font-size="14.00">dependencies</text>
<g id="clust1" class="cluster">
<title>cluster_SibilingsModule</title>
<polygon fill="none" stroke="black" stroke-dasharray="1,5" points="8,-32.8 8,-157.8 1288,-157.8 1288,-32.8 8,-32.8"/>
</g>
<g id="clust8" class="cluster">
<title>cluster_SibilingsModule_imports</title>
<polygon fill="none" stroke="black" points="875,-40.8 875,-92.8 1280,-92.8 1280,-40.8 875,-40.8"/>
</g>
<g id="clust2" class="cluster">
<title>cluster_SibilingsModule_declarations</title>
<polygon fill="none" stroke="black" points="16,-40.8 16,-92.8 867,-92.8 867,-40.8 16,-40.8"/>
</g>
<!-- BottomsheetsComponent -->
<g id="node1" class="node">
<title>BottomsheetsComponent</title>
<polygon fill="#ffffb3" stroke="black" points="858.55,-84.8 701.45,-84.8 701.45,-48.8 858.55,-48.8 858.55,-84.8"/>
<text text-anchor="middle" x="780" y="-62.6" font-family="Times,serif" font-size="14.00">BottomsheetsComponent</text>
</g>
<!-- SibilingsModule -->
<g id="node6" class="node">
<title>SibilingsModule</title>
<polygon fill="#8dd3c7" stroke="black" points="753.84,-149.8 750.84,-153.8 729.84,-153.8 726.84,-149.8 644.16,-149.8 644.16,-113.8 753.84,-113.8 753.84,-149.8"/>
<text text-anchor="middle" x="699" y="-127.6" font-family="Times,serif" font-size="14.00">SibilingsModule</text>
</g>
<!-- BottomsheetsComponent&#45;&gt;SibilingsModule -->
<g id="edge1" class="edge">
<title>BottomsheetsComponent&#45;&gt;SibilingsModule</title>
<path fill="none" stroke="black" d="M727.45,-84.91C727.45,-84.91 727.45,-103.79 727.45,-103.79"/>
<polygon fill="black" stroke="black" points="723.95,-103.79 727.45,-113.79 730.95,-103.79 723.95,-103.79"/>
</g>
<!-- SibilingsComponent -->
<g id="node2" class="node">
<title>SibilingsComponent</title>
<polygon fill="#ffffb3" stroke="black" points="683.62,-84.8 552.38,-84.8 552.38,-48.8 683.62,-48.8 683.62,-84.8"/>
<text text-anchor="middle" x="618" y="-62.6" font-family="Times,serif" font-size="14.00">SibilingsComponent</text>
</g>
<!-- SibilingsComponent&#45;&gt;SibilingsModule -->
<g id="edge2" class="edge">
<title>SibilingsComponent&#45;&gt;SibilingsModule</title>
<path fill="none" stroke="black" d="M663.95,-84.91C663.95,-84.91 663.95,-103.79 663.95,-103.79"/>
<polygon fill="black" stroke="black" points="660.45,-103.79 663.95,-113.79 667.45,-103.79 660.45,-103.79"/>
</g>
<!-- SibilingsListComponent -->
<g id="node3" class="node">
<title>SibilingsListComponent</title>
<polygon fill="#ffffb3" stroke="black" points="534.4,-84.8 381.6,-84.8 381.6,-48.8 534.4,-48.8 534.4,-84.8"/>
<text text-anchor="middle" x="458" y="-62.6" font-family="Times,serif" font-size="14.00">SibilingsListComponent</text>
</g>
<!-- SibilingsListComponent&#45;&gt;SibilingsModule -->
<g id="edge3" class="edge">
<title>SibilingsListComponent&#45;&gt;SibilingsModule</title>
<path fill="none" stroke="black" d="M458,-84.83C458,-101.2 458,-122.8 458,-122.8 458,-122.8 634.31,-122.8 634.31,-122.8"/>
<polygon fill="black" stroke="black" points="634.31,-126.3 644.31,-122.8 634.31,-119.3 634.31,-126.3"/>
</g>
<!-- SibilingsformsComponent -->
<g id="node4" class="node">
<title>SibilingsformsComponent</title>
<polygon fill="#ffffb3" stroke="black" points="363.78,-84.8 200.22,-84.8 200.22,-48.8 363.78,-48.8 363.78,-84.8"/>
<text text-anchor="middle" x="282" y="-62.6" font-family="Times,serif" font-size="14.00">SibilingsformsComponent</text>
</g>
<!-- SibilingsformsComponent&#45;&gt;SibilingsModule -->
<g id="edge4" class="edge">
<title>SibilingsformsComponent&#45;&gt;SibilingsModule</title>
<path fill="none" stroke="black" d="M282,-84.91C282,-104.14 282,-131.8 282,-131.8 282,-131.8 634.06,-131.8 634.06,-131.8"/>
<polygon fill="black" stroke="black" points="634.06,-135.3 644.06,-131.8 634.06,-128.3 634.06,-135.3"/>
</g>
<!-- SibilingstableComponent -->
<g id="node5" class="node">
<title>SibilingstableComponent</title>
<polygon fill="#ffffb3" stroke="black" points="182.33,-84.8 23.67,-84.8 23.67,-48.8 182.33,-48.8 182.33,-84.8"/>
<text text-anchor="middle" x="103" y="-62.6" font-family="Times,serif" font-size="14.00">SibilingstableComponent</text>
</g>
<!-- SibilingstableComponent&#45;&gt;SibilingsModule -->
<g id="edge5" class="edge">
<title>SibilingstableComponent&#45;&gt;SibilingsModule</title>
<path fill="none" stroke="black" d="M103,-85.09C103,-107.01 103,-140.8 103,-140.8 103,-140.8 634.26,-140.8 634.26,-140.8"/>
<polygon fill="black" stroke="black" points="634.26,-144.3 644.26,-140.8 634.26,-137.3 634.26,-144.3"/>
</g>
<!-- SharedModule -->
<g id="node7" class="node">
<title>SharedModule</title>
<polygon fill="#8dd3c7" stroke="black" points="1272.42,-84.8 1269.42,-88.8 1248.42,-88.8 1245.42,-84.8 1173.58,-84.8 1173.58,-48.8 1272.42,-48.8 1272.42,-84.8"/>
<text text-anchor="middle" x="1223" y="-62.6" font-family="Times,serif" font-size="14.00">SharedModule</text>
</g>
<!-- SharedModule&#45;&gt;SibilingsModule -->
<g id="edge6" class="edge">
<title>SharedModule&#45;&gt;SibilingsModule</title>
<path fill="none" stroke="black" d="M1223,-85.09C1223,-107.01 1223,-140.8 1223,-140.8 1223,-140.8 764.09,-140.8 764.09,-140.8"/>
<polygon fill="black" stroke="black" points="764.09,-137.3 754.09,-140.8 764.09,-144.3 764.09,-137.3"/>
</g>
<!-- SibilingsRoutingModule -->
<g id="node8" class="node">
<title>SibilingsRoutingModule</title>
<polygon fill="#8dd3c7" stroke="black" points="1156.46,-84.8 1153.46,-88.8 1132.46,-88.8 1129.46,-84.8 1001.54,-84.8 1001.54,-48.8 1156.46,-48.8 1156.46,-84.8"/>
<text text-anchor="middle" x="1079" y="-62.6" font-family="Times,serif" font-size="14.00">SibilingsRoutingModule</text>
</g>
<!-- SibilingsRoutingModule&#45;&gt;SibilingsModule -->
<g id="edge7" class="edge">
<title>SibilingsRoutingModule&#45;&gt;SibilingsModule</title>
<path fill="none" stroke="black" d="M1079,-84.91C1079,-104.14 1079,-131.8 1079,-131.8 1079,-131.8 763.85,-131.8 763.85,-131.8"/>
<polygon fill="black" stroke="black" points="763.85,-128.3 753.85,-131.8 763.85,-135.3 763.85,-128.3"/>
</g>
<!-- WidgetModule -->
<g id="node9" class="node">
<title>WidgetModule</title>
<polygon fill="#8dd3c7" stroke="black" points="983.26,-84.8 980.26,-88.8 959.26,-88.8 956.26,-84.8 882.74,-84.8 882.74,-48.8 983.26,-48.8 983.26,-84.8"/>
<text text-anchor="middle" x="933" y="-62.6" font-family="Times,serif" font-size="14.00">WidgetModule</text>
</g>
<!-- WidgetModule&#45;&gt;SibilingsModule -->
<g id="edge8" class="edge">
<title>WidgetModule&#45;&gt;SibilingsModule</title>
<path fill="none" stroke="black" d="M933,-84.83C933,-101.2 933,-122.8 933,-122.8 933,-122.8 763.86,-122.8 763.86,-122.8"/>
<polygon fill="black" stroke="black" points="763.86,-119.3 753.86,-122.8 763.86,-126.3 763.86,-119.3"/>
</g>
</g>
</svg>
