<?xml version="1.0" encoding="UTF-8" standalone="no"?>
<!DOCTYPE svg PUBLIC "-//W3C//DTD SVG 1.1//EN"
 "http://www.w3.org/Graphics/SVG/1.1/DTD/svg11.dtd">
<!-- Generated by graphviz version 2.47.3 (20210619.1520)
 -->
<!-- Title: dependencies Pages: 1 -->
<svg width="1108pt" height="174pt"
 viewBox="0.00 0.00 1108.00 173.80" xmlns="http://www.w3.org/2000/svg" xmlns:xlink="http://www.w3.org/1999/xlink">
<g id="graph0" class="graph" transform="scale(1 1) rotate(0) translate(4 169.8)">
<title>dependencies</title>
<polygon fill="white" stroke="transparent" points="-4,4 -4,-169.8 1104,-169.8 1104,4 -4,4"/>
<text text-anchor="middle" x="550" y="-8.2" font-family="sans-serif" font-size="14.00">dependencies</text>
<g id="clust1" class="cluster">
<title>cluster_AddressModule</title>
<polygon fill="none" stroke="black" stroke-dasharray="1,5" points="8,-32.8 8,-157.8 1092,-157.8 1092,-32.8 8,-32.8"/>
</g>
<g id="clust7" class="cluster">
<title>cluster_AddressModule_imports</title>
<polygon fill="none" stroke="black" points="683,-40.8 683,-92.8 1084,-92.8 1084,-40.8 683,-40.8"/>
</g>
<g id="clust2" class="cluster">
<title>cluster_AddressModule_declarations</title>
<polygon fill="none" stroke="black" points="16,-40.8 16,-92.8 675,-92.8 675,-40.8 16,-40.8"/>
</g>
<!-- AddressComponent -->
<g id="node1" class="node">
<title>AddressComponent</title>
<polygon fill="#ffffb3" stroke="black" points="666.7,-84.8 539.3,-84.8 539.3,-48.8 666.7,-48.8 666.7,-84.8"/>
<text text-anchor="middle" x="603" y="-62.6" font-family="Times,serif" font-size="14.00">AddressComponent</text>
</g>
<!-- AddressModule -->
<g id="node5" class="node">
<title>AddressModule</title>
<polygon fill="#8dd3c7" stroke="black" points="655.92,-149.8 652.92,-153.8 631.92,-153.8 628.92,-149.8 550.08,-149.8 550.08,-113.8 655.92,-113.8 655.92,-149.8"/>
<text text-anchor="middle" x="603" y="-127.6" font-family="Times,serif" font-size="14.00">AddressModule</text>
</g>
<!-- AddressComponent&#45;&gt;AddressModule -->
<g id="edge1" class="edge">
<title>AddressComponent&#45;&gt;AddressModule</title>
<path fill="none" stroke="black" d="M603,-84.91C603,-84.91 603,-103.79 603,-103.79"/>
<polygon fill="black" stroke="black" points="599.5,-103.79 603,-113.79 606.5,-103.79 599.5,-103.79"/>
</g>
<!-- AddressFormsComponent -->
<g id="node2" class="node">
<title>AddressFormsComponent</title>
<polygon fill="#ffffb3" stroke="black" points="521.48,-84.8 358.52,-84.8 358.52,-48.8 521.48,-48.8 521.48,-84.8"/>
<text text-anchor="middle" x="440" y="-62.6" font-family="Times,serif" font-size="14.00">AddressFormsComponent</text>
</g>
<!-- AddressFormsComponent&#45;&gt;AddressModule -->
<g id="edge2" class="edge">
<title>AddressFormsComponent&#45;&gt;AddressModule</title>
<path fill="none" stroke="black" d="M440,-84.83C440,-101.2 440,-122.8 440,-122.8 440,-122.8 540.08,-122.8 540.08,-122.8"/>
<polygon fill="black" stroke="black" points="540.08,-126.3 550.08,-122.8 540.08,-119.3 540.08,-126.3"/>
</g>
<!-- AddresslistComponent -->
<g id="node3" class="node">
<title>AddresslistComponent</title>
<polygon fill="#ffffb3" stroke="black" points="340.32,-84.8 195.68,-84.8 195.68,-48.8 340.32,-48.8 340.32,-84.8"/>
<text text-anchor="middle" x="268" y="-62.6" font-family="Times,serif" font-size="14.00">AddresslistComponent</text>
</g>
<!-- AddresslistComponent&#45;&gt;AddressModule -->
<g id="edge3" class="edge">
<title>AddresslistComponent&#45;&gt;AddressModule</title>
<path fill="none" stroke="black" d="M268,-84.91C268,-104.14 268,-131.8 268,-131.8 268,-131.8 540.29,-131.8 540.29,-131.8"/>
<polygon fill="black" stroke="black" points="540.29,-135.3 550.29,-131.8 540.29,-128.3 540.29,-135.3"/>
</g>
<!-- AddresstableComponent -->
<g id="node4" class="node">
<title>AddresstableComponent</title>
<polygon fill="#ffffb3" stroke="black" points="178.41,-84.8 23.59,-84.8 23.59,-48.8 178.41,-48.8 178.41,-84.8"/>
<text text-anchor="middle" x="101" y="-62.6" font-family="Times,serif" font-size="14.00">AddresstableComponent</text>
</g>
<!-- AddresstableComponent&#45;&gt;AddressModule -->
<g id="edge4" class="edge">
<title>AddresstableComponent&#45;&gt;AddressModule</title>
<path fill="none" stroke="black" d="M101,-85.09C101,-107.01 101,-140.8 101,-140.8 101,-140.8 540.23,-140.8 540.23,-140.8"/>
<polygon fill="black" stroke="black" points="540.23,-144.3 550.23,-140.8 540.23,-137.3 540.23,-144.3"/>
</g>
<!-- AddressRoutingModule -->
<g id="node6" class="node">
<title>AddressRoutingModule</title>
<polygon fill="#8dd3c7" stroke="black" points="1076.04,-84.8 1073.04,-88.8 1052.04,-88.8 1049.04,-84.8 925.96,-84.8 925.96,-48.8 1076.04,-48.8 1076.04,-84.8"/>
<text text-anchor="middle" x="1001" y="-62.6" font-family="Times,serif" font-size="14.00">AddressRoutingModule</text>
</g>
<!-- AddressRoutingModule&#45;&gt;AddressModule -->
<g id="edge5" class="edge">
<title>AddressRoutingModule&#45;&gt;AddressModule</title>
<path fill="none" stroke="black" d="M1001,-85.09C1001,-107.01 1001,-140.8 1001,-140.8 1001,-140.8 665.85,-140.8 665.85,-140.8"/>
<polygon fill="black" stroke="black" points="665.85,-137.3 655.85,-140.8 665.85,-144.3 665.85,-137.3"/>
</g>
<!-- SharedModule -->
<g id="node7" class="node">
<title>SharedModule</title>
<polygon fill="#8dd3c7" stroke="black" points="908.42,-84.8 905.42,-88.8 884.42,-88.8 881.42,-84.8 809.58,-84.8 809.58,-48.8 908.42,-48.8 908.42,-84.8"/>
<text text-anchor="middle" x="859" y="-62.6" font-family="Times,serif" font-size="14.00">SharedModule</text>
</g>
<!-- SharedModule&#45;&gt;AddressModule -->
<g id="edge6" class="edge">
<title>SharedModule&#45;&gt;AddressModule</title>
<path fill="none" stroke="black" d="M859,-84.91C859,-104.14 859,-131.8 859,-131.8 859,-131.8 665.73,-131.8 665.73,-131.8"/>
<polygon fill="black" stroke="black" points="665.73,-128.3 655.73,-131.8 665.73,-135.3 665.73,-128.3"/>
</g>
<!-- WidgetModule -->
<g id="node8" class="node">
<title>WidgetModule</title>
<polygon fill="#8dd3c7" stroke="black" points="791.26,-84.8 788.26,-88.8 767.26,-88.8 764.26,-84.8 690.74,-84.8 690.74,-48.8 791.26,-48.8 791.26,-84.8"/>
<text text-anchor="middle" x="741" y="-62.6" font-family="Times,serif" font-size="14.00">WidgetModule</text>
</g>
<!-- WidgetModule&#45;&gt;AddressModule -->
<g id="edge7" class="edge">
<title>WidgetModule&#45;&gt;AddressModule</title>
<path fill="none" stroke="black" d="M741,-84.83C741,-101.2 741,-122.8 741,-122.8 741,-122.8 665.96,-122.8 665.96,-122.8"/>
<polygon fill="black" stroke="black" points="665.96,-119.3 655.96,-122.8 665.96,-126.3 665.96,-119.3"/>
</g>
</g>
</svg>
