<?xml version="1.0" encoding="UTF-8" standalone="no"?>
<!DOCTYPE svg PUBLIC "-//W3C//DTD SVG 1.1//EN"
 "http://www.w3.org/Graphics/SVG/1.1/DTD/svg11.dtd">
<!-- Generated by graphviz version 2.47.3 (20210619.1520)
 -->
<!-- Title: dependencies Pages: 1 -->
<svg width="1810pt" height="247pt"
 viewBox="0.00 0.00 1810.00 246.80" xmlns="http://www.w3.org/2000/svg" xmlns:xlink="http://www.w3.org/1999/xlink">
<g id="graph0" class="graph" transform="scale(1 1) rotate(0) translate(4 242.8)">
<title>dependencies</title>
<polygon fill="white" stroke="transparent" points="-4,4 -4,-242.8 1806,-242.8 1806,4 -4,4"/>
<text text-anchor="middle" x="901" y="-8.2" font-family="sans-serif" font-size="14.00">dependencies</text>
<g id="clust1" class="cluster">
<title>cluster_AppModule</title>
<polygon fill="none" stroke="black" stroke-dasharray="1,5" points="8,-32.8 8,-230.8 1794,-230.8 1794,-32.8 8,-32.8"/>
</g>
<g id="clust9" class="cluster">
<title>cluster_AppModule_providers</title>
<polygon fill="none" stroke="black" points="1077,-40.8 1077,-92.8 1786,-92.8 1786,-40.8 1077,-40.8"/>
</g>
<g id="clust2" class="cluster">
<title>cluster_AppModule_declarations</title>
<polygon fill="none" stroke="black" points="616,-40.8 616,-92.8 1069,-92.8 1069,-40.8 616,-40.8"/>
</g>
<g id="clust8" class="cluster">
<title>cluster_AppModule_bootstrap</title>
<polygon fill="none" stroke="black" points="698,-170.8 698,-222.8 822,-222.8 822,-170.8 698,-170.8"/>
</g>
<g id="clust6" class="cluster">
<title>cluster_AppModule_imports</title>
<polygon fill="none" stroke="black" points="16,-40.8 16,-92.8 608,-92.8 608,-40.8 16,-40.8"/>
</g>
<!-- AccessDeniedComponent -->
<g id="node1" class="node">
<title>AccessDeniedComponent</title>
<polygon fill="#ffffb3" stroke="black" points="1060.9,-84.8 899.1,-84.8 899.1,-48.8 1060.9,-48.8 1060.9,-84.8"/>
<text text-anchor="middle" x="980" y="-62.6" font-family="Times,serif" font-size="14.00">AccessDeniedComponent</text>
</g>
<!-- AppModule -->
<g id="node4" class="node">
<title>AppModule</title>
<polygon fill="#8dd3c7" stroke="black" points="801.66,-149.8 798.66,-153.8 777.66,-153.8 774.66,-149.8 718.34,-149.8 718.34,-113.8 801.66,-113.8 801.66,-149.8"/>
<text text-anchor="middle" x="760" y="-127.6" font-family="Times,serif" font-size="14.00">AppModule</text>
</g>
<!-- AccessDeniedComponent&#45;&gt;AppModule -->
<g id="edge1" class="edge">
<title>AccessDeniedComponent&#45;&gt;AppModule</title>
<path fill="none" stroke="black" d="M980,-85.04C980,-100.37 980,-119.8 980,-119.8 980,-119.8 811.9,-119.8 811.9,-119.8"/>
<polygon fill="black" stroke="black" points="811.9,-116.3 801.9,-119.8 811.9,-123.3 811.9,-116.3"/>
</g>
<!-- AppComponent -->
<g id="node2" class="node">
<title>AppComponent</title>
<polygon fill="#ffffb3" stroke="black" points="881.94,-84.8 776.06,-84.8 776.06,-48.8 881.94,-48.8 881.94,-84.8"/>
<text text-anchor="middle" x="829" y="-62.6" font-family="Times,serif" font-size="14.00">AppComponent</text>
</g>
<!-- AppComponent&#45;&gt;AppModule -->
<g id="edge2" class="edge">
<title>AppComponent&#45;&gt;AppModule</title>
<path fill="none" stroke="black" d="M789.05,-84.91C789.05,-84.91 789.05,-103.79 789.05,-103.79"/>
<polygon fill="black" stroke="black" points="785.55,-103.79 789.05,-113.79 792.55,-103.79 785.55,-103.79"/>
</g>
<!-- NotfoundComponent -->
<g id="node3" class="node">
<title>NotfoundComponent</title>
<polygon fill="#ffffb3" stroke="black" points="758.49,-84.8 623.51,-84.8 623.51,-48.8 758.49,-48.8 758.49,-84.8"/>
<text text-anchor="middle" x="691" y="-62.6" font-family="Times,serif" font-size="14.00">NotfoundComponent</text>
</g>
<!-- NotfoundComponent&#45;&gt;AppModule -->
<g id="edge3" class="edge">
<title>NotfoundComponent&#45;&gt;AppModule</title>
<path fill="none" stroke="black" d="M738.33,-84.91C738.33,-84.91 738.33,-103.79 738.33,-103.79"/>
<polygon fill="black" stroke="black" points="734.83,-103.79 738.33,-113.79 741.83,-103.79 734.83,-103.79"/>
</g>
<!-- AppComponent  -->
<g id="node10" class="node">
<title>AppComponent </title>
<polygon fill="#80b1d3" stroke="black" points="814.44,-214.8 705.56,-214.8 705.56,-178.8 814.44,-178.8 814.44,-214.8"/>
<text text-anchor="middle" x="760" y="-192.6" font-family="Times,serif" font-size="14.00">AppComponent </text>
</g>
<!-- AppModule&#45;&gt;AppComponent  -->
<g id="edge9" class="edge">
<title>AppModule&#45;&gt;AppComponent </title>
<path fill="none" stroke="black" stroke-dasharray="1,5" d="M760,-149.91C760,-149.91 760,-168.79 760,-168.79"/>
<polygon fill="black" stroke="black" points="756.5,-168.79 760,-178.79 763.5,-168.79 756.5,-168.79"/>
</g>
<!-- AppRoutingModule -->
<g id="node5" class="node">
<title>AppRoutingModule</title>
<polygon fill="#8dd3c7" stroke="black" points="600.27,-84.8 597.27,-88.8 576.27,-88.8 573.27,-84.8 471.73,-84.8 471.73,-48.8 600.27,-48.8 600.27,-84.8"/>
<text text-anchor="middle" x="536" y="-62.6" font-family="Times,serif" font-size="14.00">AppRoutingModule</text>
</g>
<!-- AppRoutingModule&#45;&gt;AppModule -->
<g id="edge4" class="edge">
<title>AppRoutingModule&#45;&gt;AppModule</title>
<path fill="none" stroke="black" d="M536,-85.04C536,-100.37 536,-119.8 536,-119.8 536,-119.8 708.13,-119.8 708.13,-119.8"/>
<polygon fill="black" stroke="black" points="708.13,-123.3 718.13,-119.8 708.13,-116.3 708.13,-123.3"/>
</g>
<!-- CoreModule -->
<g id="node6" class="node">
<title>CoreModule</title>
<polygon fill="#8dd3c7" stroke="black" points="453.26,-84.8 450.26,-88.8 429.26,-88.8 426.26,-84.8 366.74,-84.8 366.74,-48.8 453.26,-48.8 453.26,-84.8"/>
<text text-anchor="middle" x="410" y="-62.6" font-family="Times,serif" font-size="14.00">CoreModule</text>
</g>
<!-- CoreModule&#45;&gt;AppModule -->
<g id="edge5" class="edge">
<title>CoreModule&#45;&gt;AppModule</title>
<path fill="none" stroke="black" d="M410,-84.82C410,-102.17 410,-125.8 410,-125.8 410,-125.8 708.13,-125.8 708.13,-125.8"/>
<polygon fill="black" stroke="black" points="708.13,-129.3 718.13,-125.8 708.13,-122.3 708.13,-129.3"/>
</g>
<!-- SharedModule -->
<g id="node7" class="node">
<title>SharedModule</title>
<polygon fill="#8dd3c7" stroke="black" points="348.42,-84.8 345.42,-88.8 324.42,-88.8 321.42,-84.8 249.58,-84.8 249.58,-48.8 348.42,-48.8 348.42,-84.8"/>
<text text-anchor="middle" x="299" y="-62.6" font-family="Times,serif" font-size="14.00">SharedModule</text>
</g>
<!-- SharedModule&#45;&gt;AppModule -->
<g id="edge6" class="edge">
<title>SharedModule&#45;&gt;AppModule</title>
<path fill="none" stroke="black" d="M299,-84.91C299,-104.14 299,-131.8 299,-131.8 299,-131.8 708.28,-131.8 708.28,-131.8"/>
<polygon fill="black" stroke="black" points="708.28,-135.3 718.28,-131.8 708.28,-128.3 708.28,-135.3"/>
</g>
<!-- StoreModule -->
<g id="node8" class="node">
<title>StoreModule</title>
<polygon fill="#8dd3c7" stroke="black" points="231.6,-84.8 228.6,-88.8 207.6,-88.8 204.6,-84.8 142.4,-84.8 142.4,-48.8 231.6,-48.8 231.6,-84.8"/>
<text text-anchor="middle" x="187" y="-62.6" font-family="Times,serif" font-size="14.00">StoreModule</text>
</g>
<!-- StoreModule&#45;&gt;AppModule -->
<g id="edge7" class="edge">
<title>StoreModule&#45;&gt;AppModule</title>
<path fill="none" stroke="black" d="M187,-85.08C187,-106.12 187,-137.8 187,-137.8 187,-137.8 708.33,-137.8 708.33,-137.8"/>
<polygon fill="black" stroke="black" points="708.33,-141.3 718.33,-137.8 708.33,-134.3 708.33,-141.3"/>
</g>
<!-- WidgetModule -->
<g id="node9" class="node">
<title>WidgetModule</title>
<polygon fill="#8dd3c7" stroke="black" points="124.26,-84.8 121.26,-88.8 100.26,-88.8 97.26,-84.8 23.74,-84.8 23.74,-48.8 124.26,-48.8 124.26,-84.8"/>
<text text-anchor="middle" x="74" y="-62.6" font-family="Times,serif" font-size="14.00">WidgetModule</text>
</g>
<!-- WidgetModule&#45;&gt;AppModule -->
<g id="edge8" class="edge">
<title>WidgetModule&#45;&gt;AppModule</title>
<path fill="none" stroke="black" d="M74,-85.05C74,-107.82 74,-143.8 74,-143.8 74,-143.8 708.12,-143.8 708.12,-143.8"/>
<polygon fill="black" stroke="black" points="708.12,-147.3 718.12,-143.8 708.12,-140.3 708.12,-147.3"/>
</g>
<!-- CachingInterceptorService -->
<g id="node11" class="node">
<title>CachingInterceptorService</title>
<ellipse fill="#fdb462" stroke="black" cx="1663" cy="-66.8" rx="114.56" ry="18"/>
<text text-anchor="middle" x="1663" y="-62.6" font-family="Times,serif" font-size="14.00">CachingInterceptorService</text>
</g>
<!-- CachingInterceptorService&#45;&gt;AppModule -->
<g id="edge10" class="edge">
<title>CachingInterceptorService&#45;&gt;AppModule</title>
<path fill="none" stroke="black" d="M1663,-85.05C1663,-107.82 1663,-143.8 1663,-143.8 1663,-143.8 811.74,-143.8 811.74,-143.8"/>
<polygon fill="black" stroke="black" points="811.74,-140.3 801.74,-143.8 811.74,-147.3 811.74,-140.3"/>
</g>
<!-- HttpErrorFilter -->
<g id="node12" class="node">
<title>HttpErrorFilter</title>
<ellipse fill="#fdb462" stroke="black" cx="1461" cy="-66.8" rx="69.49" ry="18"/>
<text text-anchor="middle" x="1461" y="-62.6" font-family="Times,serif" font-size="14.00">HttpErrorFilter</text>
</g>
<!-- HttpErrorFilter&#45;&gt;AppModule -->
<g id="edge11" class="edge">
<title>HttpErrorFilter&#45;&gt;AppModule</title>
<path fill="none" stroke="black" d="M1461,-85.08C1461,-106.12 1461,-137.8 1461,-137.8 1461,-137.8 811.75,-137.8 811.75,-137.8"/>
<polygon fill="black" stroke="black" points="811.75,-134.3 801.75,-137.8 811.75,-141.3 811.75,-134.3"/>
</g>
<!-- HttpFilter -->
<g id="node13" class="node">
<title>HttpFilter</title>
<ellipse fill="#fdb462" stroke="black" cx="1324" cy="-66.8" rx="49.25" ry="18"/>
<text text-anchor="middle" x="1324" y="-62.6" font-family="Times,serif" font-size="14.00">HttpFilter</text>
</g>
<!-- HttpFilter&#45;&gt;AppModule -->
<g id="edge12" class="edge">
<title>HttpFilter&#45;&gt;AppModule</title>
<path fill="none" stroke="black" d="M1324,-84.91C1324,-104.14 1324,-131.8 1324,-131.8 1324,-131.8 811.93,-131.8 811.93,-131.8"/>
<polygon fill="black" stroke="black" points="811.93,-128.3 801.93,-131.8 811.93,-135.3 811.93,-128.3"/>
</g>
<!-- LoggingInterceptor -->
<g id="node14" class="node">
<title>LoggingInterceptor</title>
<ellipse fill="#fdb462" stroke="black" cx="1171" cy="-66.8" rx="86.24" ry="18"/>
<text text-anchor="middle" x="1171" y="-62.6" font-family="Times,serif" font-size="14.00">LoggingInterceptor</text>
</g>
<!-- LoggingInterceptor&#45;&gt;AppModule -->
<g id="edge13" class="edge">
<title>LoggingInterceptor&#45;&gt;AppModule</title>
<path fill="none" stroke="black" d="M1171,-84.82C1171,-102.17 1171,-125.8 1171,-125.8 1171,-125.8 811.67,-125.8 811.67,-125.8"/>
<polygon fill="black" stroke="black" points="811.67,-122.3 801.67,-125.8 811.67,-129.3 811.67,-122.3"/>
</g>
</g>
</svg>
