<?xml version="1.0" encoding="UTF-8" standalone="no"?>
<!DOCTYPE svg PUBLIC "-//W3C//DTD SVG 1.1//EN"
 "http://www.w3.org/Graphics/SVG/1.1/DTD/svg11.dtd">
<!-- Generated by graphviz version 2.47.3 (20210619.1520)
 -->
<!-- Title: dependencies Pages: 1 -->
<svg width="406pt" height="174pt"
 viewBox="0.00 0.00 406.00 173.80" xmlns="http://www.w3.org/2000/svg" xmlns:xlink="http://www.w3.org/1999/xlink">
<g id="graph0" class="graph" transform="scale(1 1) rotate(0) translate(4 169.8)">
<title>dependencies</title>
<polygon fill="white" stroke="transparent" points="-4,4 -4,-169.8 402,-169.8 402,4 -4,4"/>
<text text-anchor="middle" x="199" y="-8.2" font-family="sans-serif" font-size="14.00">dependencies</text>
<g id="clust1" class="cluster">
<title>cluster_AppModule</title>
<polygon fill="none" stroke="black" stroke-dasharray="1,5" points="8,-32.8 8,-157.8 390,-157.8 390,-32.8 8,-32.8"/>
</g>
<g id="clust3" class="cluster">
<title>cluster_AppModule_imports</title>
<polygon fill="none" stroke="black" points="154,-40.8 154,-92.8 382,-92.8 382,-40.8 154,-40.8"/>
</g>
<g id="clust6" class="cluster">
<title>cluster_AppModule_providers</title>
<polygon fill="none" stroke="black" points="16,-40.8 16,-92.8 146,-92.8 146,-40.8 16,-40.8"/>
</g>
<!-- CoreModule -->
<g id="node1" class="node">
<title>CoreModule</title>
<polygon fill="#8dd3c7" stroke="black" points="374.26,-84.8 371.26,-88.8 350.26,-88.8 347.26,-84.8 287.74,-84.8 287.74,-48.8 374.26,-48.8 374.26,-84.8"/>
<text text-anchor="middle" x="331" y="-62.6" font-family="Times,serif" font-size="14.00">CoreModule</text>
</g>
<!-- AppModule -->
<g id="node3" class="node">
<title>AppModule</title>
<polygon fill="#8dd3c7" stroke="black" points="257.66,-149.8 254.66,-153.8 233.66,-153.8 230.66,-149.8 174.34,-149.8 174.34,-113.8 257.66,-113.8 257.66,-149.8"/>
<text text-anchor="middle" x="216" y="-127.6" font-family="Times,serif" font-size="14.00">AppModule</text>
</g>
<!-- CoreModule&#45;&gt;AppModule -->
<g id="edge1" class="edge">
<title>CoreModule&#45;&gt;AppModule</title>
<path fill="none" stroke="black" d="M331,-84.91C331,-104.14 331,-131.8 331,-131.8 331,-131.8 267.84,-131.8 267.84,-131.8"/>
<polygon fill="black" stroke="black" points="267.84,-128.3 257.84,-131.8 267.84,-135.3 267.84,-128.3"/>
</g>
<!-- StudentsModule -->
<g id="node2" class="node">
<title>StudentsModule</title>
<polygon fill="#8dd3c7" stroke="black" points="269.77,-84.8 266.77,-88.8 245.77,-88.8 242.77,-84.8 162.23,-84.8 162.23,-48.8 269.77,-48.8 269.77,-84.8"/>
<text text-anchor="middle" x="216" y="-62.6" font-family="Times,serif" font-size="14.00">StudentsModule</text>
</g>
<!-- StudentsModule&#45;&gt;AppModule -->
<g id="edge2" class="edge">
<title>StudentsModule&#45;&gt;AppModule</title>
<path fill="none" stroke="black" d="M216,-84.91C216,-84.91 216,-103.79 216,-103.79"/>
<polygon fill="black" stroke="black" points="212.5,-103.79 216,-113.79 219.5,-103.79 212.5,-103.79"/>
</g>
<!-- AppService -->
<g id="node4" class="node">
<title>AppService</title>
<ellipse fill="#fdb462" stroke="black" cx="81" cy="-66.8" rx="56.74" ry="18"/>
<text text-anchor="middle" x="81" y="-62.6" font-family="Times,serif" font-size="14.00">AppService</text>
</g>
<!-- AppService&#45;&gt;AppModule -->
<g id="edge3" class="edge">
<title>AppService&#45;&gt;AppModule</title>
<path fill="none" stroke="black" d="M81,-84.91C81,-104.14 81,-131.8 81,-131.8 81,-131.8 164.03,-131.8 164.03,-131.8"/>
<polygon fill="black" stroke="black" points="164.03,-135.3 174.03,-131.8 164.03,-128.3 164.03,-135.3"/>
</g>
</g>
</svg>
