<?xml version="1.0" encoding="UTF-8" standalone="no"?>
<!DOCTYPE svg PUBLIC "-//W3C//DTD SVG 1.1//EN"
 "http://www.w3.org/Graphics/SVG/1.1/DTD/svg11.dtd">
<!-- Generated by graphviz version 2.47.3 (20210619.1520)
 -->
<!-- Title: dependencies Pages: 1 -->
<svg width="1358pt" height="174pt"
 viewBox="0.00 0.00 1358.00 173.80" xmlns="http://www.w3.org/2000/svg" xmlns:xlink="http://www.w3.org/1999/xlink">
<g id="graph0" class="graph" transform="scale(1 1) rotate(0) translate(4 169.8)">
<title>dependencies</title>
<polygon fill="white" stroke="transparent" points="-4,4 -4,-169.8 1354,-169.8 1354,4 -4,4"/>
<text text-anchor="middle" x="675" y="-8.2" font-family="sans-serif" font-size="14.00">dependencies</text>
<g id="clust1" class="cluster">
<title>cluster_StudentdetailsModule</title>
<polygon fill="none" stroke="black" stroke-dasharray="1,5" points="8,-32.8 8,-157.8 1342,-157.8 1342,-32.8 8,-32.8"/>
</g>
<g id="clust2" class="cluster">
<title>cluster_StudentdetailsModule_declarations</title>
<polygon fill="none" stroke="black" points="518,-40.8 518,-92.8 1334,-92.8 1334,-40.8 518,-40.8"/>
</g>
<g id="clust8" class="cluster">
<title>cluster_StudentdetailsModule_imports</title>
<polygon fill="none" stroke="black" points="16,-40.8 16,-92.8 510,-92.8 510,-40.8 16,-40.8"/>
</g>
<!-- BottomsheetPipe -->
<g id="node1" class="node">
<title>BottomsheetPipe</title>
<polygon fill="#ffffb3" stroke="black" points="1325.66,-84.8 1214.34,-84.8 1214.34,-48.8 1325.66,-48.8 1325.66,-84.8"/>
<text text-anchor="middle" x="1270" y="-62.6" font-family="Times,serif" font-size="14.00">BottomsheetPipe</text>
</g>
<!-- StudentdetailsModule -->
<g id="node6" class="node">
<title>StudentdetailsModule</title>
<polygon fill="#8dd3c7" stroke="black" points="760.37,-149.8 757.37,-153.8 736.37,-153.8 733.37,-149.8 621.63,-149.8 621.63,-113.8 760.37,-113.8 760.37,-149.8"/>
<text text-anchor="middle" x="691" y="-127.6" font-family="Times,serif" font-size="14.00">StudentdetailsModule</text>
</g>
<!-- BottomsheetPipe&#45;&gt;StudentdetailsModule -->
<g id="edge1" class="edge">
<title>BottomsheetPipe&#45;&gt;StudentdetailsModule</title>
<path fill="none" stroke="black" d="M1270,-85.09C1270,-107.01 1270,-140.8 1270,-140.8 1270,-140.8 770.55,-140.8 770.55,-140.8"/>
<polygon fill="black" stroke="black" points="770.55,-137.3 760.55,-140.8 770.55,-144.3 770.55,-137.3"/>
</g>
<!-- StudentFormsComponent -->
<g id="node2" class="node">
<title>StudentFormsComponent</title>
<polygon fill="#ffffb3" stroke="black" points="1195.89,-84.8 1036.11,-84.8 1036.11,-48.8 1195.89,-48.8 1195.89,-84.8"/>
<text text-anchor="middle" x="1116" y="-62.6" font-family="Times,serif" font-size="14.00">StudentFormsComponent</text>
</g>
<!-- StudentFormsComponent&#45;&gt;StudentdetailsModule -->
<g id="edge2" class="edge">
<title>StudentFormsComponent&#45;&gt;StudentdetailsModule</title>
<path fill="none" stroke="black" d="M1116,-84.91C1116,-104.14 1116,-131.8 1116,-131.8 1116,-131.8 770.7,-131.8 770.7,-131.8"/>
<polygon fill="black" stroke="black" points="770.7,-128.3 760.7,-131.8 770.7,-135.3 770.7,-128.3"/>
</g>
<!-- StudentGridComponent -->
<g id="node3" class="node">
<title>StudentGridComponent</title>
<polygon fill="#ffffb3" stroke="black" points="1017.77,-84.8 868.23,-84.8 868.23,-48.8 1017.77,-48.8 1017.77,-84.8"/>
<text text-anchor="middle" x="943" y="-62.6" font-family="Times,serif" font-size="14.00">StudentGridComponent</text>
</g>
<!-- StudentGridComponent&#45;&gt;StudentdetailsModule -->
<g id="edge3" class="edge">
<title>StudentGridComponent&#45;&gt;StudentdetailsModule</title>
<path fill="none" stroke="black" d="M943,-84.83C943,-101.2 943,-122.8 943,-122.8 943,-122.8 770.53,-122.8 770.53,-122.8"/>
<polygon fill="black" stroke="black" points="770.53,-119.3 760.53,-122.8 770.53,-126.3 770.53,-119.3"/>
</g>
<!-- StudentListComponent -->
<g id="node4" class="node">
<title>StudentListComponent</title>
<polygon fill="#ffffb3" stroke="black" points="849.89,-84.8 704.11,-84.8 704.11,-48.8 849.89,-48.8 849.89,-84.8"/>
<text text-anchor="middle" x="777" y="-62.6" font-family="Times,serif" font-size="14.00">StudentListComponent</text>
</g>
<!-- StudentListComponent&#45;&gt;StudentdetailsModule -->
<g id="edge4" class="edge">
<title>StudentListComponent&#45;&gt;StudentdetailsModule</title>
<path fill="none" stroke="black" d="M732.25,-84.91C732.25,-84.91 732.25,-103.79 732.25,-103.79"/>
<polygon fill="black" stroke="black" points="728.75,-103.79 732.25,-113.79 735.75,-103.79 728.75,-103.79"/>
</g>
<!-- StudentdetailsComponent -->
<g id="node5" class="node">
<title>StudentdetailsComponent</title>
<polygon fill="#ffffb3" stroke="black" points="686.16,-84.8 525.84,-84.8 525.84,-48.8 686.16,-48.8 686.16,-84.8"/>
<text text-anchor="middle" x="606" y="-62.6" font-family="Times,serif" font-size="14.00">StudentdetailsComponent</text>
</g>
<!-- StudentdetailsComponent&#45;&gt;StudentdetailsModule -->
<g id="edge5" class="edge">
<title>StudentdetailsComponent&#45;&gt;StudentdetailsModule</title>
<path fill="none" stroke="black" d="M653.95,-84.91C653.95,-84.91 653.95,-103.79 653.95,-103.79"/>
<polygon fill="black" stroke="black" points="650.45,-103.79 653.95,-113.79 657.45,-103.79 650.45,-103.79"/>
</g>
<!-- MatCustomTableModule -->
<g id="node7" class="node">
<title>MatCustomTableModule</title>
<polygon fill="#8dd3c7" stroke="black" points="501.54,-84.8 498.54,-88.8 477.54,-88.8 474.54,-84.8 344.46,-84.8 344.46,-48.8 501.54,-48.8 501.54,-84.8"/>
<text text-anchor="middle" x="423" y="-62.6" font-family="Times,serif" font-size="14.00">MatCustomTableModule</text>
</g>
<!-- MatCustomTableModule&#45;&gt;StudentdetailsModule -->
<g id="edge6" class="edge">
<title>MatCustomTableModule&#45;&gt;StudentdetailsModule</title>
<path fill="none" stroke="black" d="M423,-84.83C423,-101.2 423,-122.8 423,-122.8 423,-122.8 611.29,-122.8 611.29,-122.8"/>
<polygon fill="black" stroke="black" points="611.29,-126.3 621.29,-122.8 611.29,-119.3 611.29,-126.3"/>
</g>
<!-- StudentdetailsRoutingModule -->
<g id="node8" class="node">
<title>StudentdetailsRoutingModule</title>
<polygon fill="#8dd3c7" stroke="black" points="325.99,-84.8 322.99,-88.8 301.99,-88.8 298.99,-84.8 142.01,-84.8 142.01,-48.8 325.99,-48.8 325.99,-84.8"/>
<text text-anchor="middle" x="234" y="-62.6" font-family="Times,serif" font-size="14.00">StudentdetailsRoutingModule</text>
</g>
<!-- StudentdetailsRoutingModule&#45;&gt;StudentdetailsModule -->
<g id="edge7" class="edge">
<title>StudentdetailsRoutingModule&#45;&gt;StudentdetailsModule</title>
<path fill="none" stroke="black" d="M234,-84.91C234,-104.14 234,-131.8 234,-131.8 234,-131.8 611.59,-131.8 611.59,-131.8"/>
<polygon fill="black" stroke="black" points="611.59,-135.3 621.59,-131.8 611.59,-128.3 611.59,-135.3"/>
</g>
<!-- WidgetModule -->
<g id="node9" class="node">
<title>WidgetModule</title>
<polygon fill="#8dd3c7" stroke="black" points="124.26,-84.8 121.26,-88.8 100.26,-88.8 97.26,-84.8 23.74,-84.8 23.74,-48.8 124.26,-48.8 124.26,-84.8"/>
<text text-anchor="middle" x="74" y="-62.6" font-family="Times,serif" font-size="14.00">WidgetModule</text>
</g>
<!-- WidgetModule&#45;&gt;StudentdetailsModule -->
<g id="edge8" class="edge">
<title>WidgetModule&#45;&gt;StudentdetailsModule</title>
<path fill="none" stroke="black" d="M74,-85.09C74,-107.01 74,-140.8 74,-140.8 74,-140.8 611.42,-140.8 611.42,-140.8"/>
<polygon fill="black" stroke="black" points="611.42,-144.3 621.42,-140.8 611.42,-137.3 611.42,-144.3"/>
</g>
</g>
</svg>
