<?xml version="1.0" encoding="UTF-8" standalone="no"?>
<!DOCTYPE svg PUBLIC "-//W3C//DTD SVG 1.1//EN"
 "http://www.w3.org/Graphics/SVG/1.1/DTD/svg11.dtd">
<!-- Generated by graphviz version 2.47.3 (20210619.1520)
 -->
<!-- Title: dependencies Pages: 1 -->
<svg width="976pt" height="174pt"
 viewBox="0.00 0.00 976.00 173.80" xmlns="http://www.w3.org/2000/svg" xmlns:xlink="http://www.w3.org/1999/xlink">
<g id="graph0" class="graph" transform="scale(1 1) rotate(0) translate(4 169.8)">
<title>dependencies</title>
<polygon fill="white" stroke="transparent" points="-4,4 -4,-169.8 972,-169.8 972,4 -4,4"/>
<text text-anchor="middle" x="484" y="-8.2" font-family="sans-serif" font-size="14.00">dependencies</text>
<g id="clust1" class="cluster">
<title>cluster_ParentsModule</title>
<polygon fill="none" stroke="black" stroke-dasharray="1,5" points="8,-32.8 8,-157.8 960,-157.8 960,-32.8 8,-32.8"/>
</g>
<g id="clust7" class="cluster">
<title>cluster_ParentsModule_imports</title>
<polygon fill="none" stroke="black" points="672,-40.8 672,-92.8 952,-92.8 952,-40.8 672,-40.8"/>
</g>
<g id="clust2" class="cluster">
<title>cluster_ParentsModule_declarations</title>
<polygon fill="none" stroke="black" points="16,-40.8 16,-92.8 664,-92.8 664,-40.8 16,-40.8"/>
</g>
<!-- ParentsComponent -->
<g id="node1" class="node">
<title>ParentsComponent</title>
<polygon fill="#ffffb3" stroke="black" points="656.04,-84.8 533.96,-84.8 533.96,-48.8 656.04,-48.8 656.04,-84.8"/>
<text text-anchor="middle" x="595" y="-62.6" font-family="Times,serif" font-size="14.00">ParentsComponent</text>
</g>
<!-- ParentsModule -->
<g id="node5" class="node">
<title>ParentsModule</title>
<polygon fill="#8dd3c7" stroke="black" points="566.26,-149.8 563.26,-153.8 542.26,-153.8 539.26,-149.8 465.74,-149.8 465.74,-113.8 566.26,-113.8 566.26,-149.8"/>
<text text-anchor="middle" x="516" y="-127.6" font-family="Times,serif" font-size="14.00">ParentsModule</text>
</g>
<!-- ParentsComponent&#45;&gt;ParentsModule -->
<g id="edge1" class="edge">
<title>ParentsComponent&#45;&gt;ParentsModule</title>
<path fill="none" stroke="black" d="M550.05,-84.91C550.05,-84.91 550.05,-103.79 550.05,-103.79"/>
<polygon fill="black" stroke="black" points="546.55,-103.79 550.05,-113.79 553.55,-103.79 546.55,-103.79"/>
</g>
<!-- ParentsFormsComponent -->
<g id="node2" class="node">
<title>ParentsFormsComponent</title>
<polygon fill="#ffffb3" stroke="black" points="516.32,-84.8 357.68,-84.8 357.68,-48.8 516.32,-48.8 516.32,-84.8"/>
<text text-anchor="middle" x="437" y="-62.6" font-family="Times,serif" font-size="14.00">ParentsFormsComponent</text>
</g>
<!-- ParentsFormsComponent&#45;&gt;ParentsModule -->
<g id="edge2" class="edge">
<title>ParentsFormsComponent&#45;&gt;ParentsModule</title>
<path fill="none" stroke="black" d="M490.89,-84.91C490.89,-84.91 490.89,-103.79 490.89,-103.79"/>
<polygon fill="black" stroke="black" points="487.39,-103.79 490.89,-113.79 494.39,-103.79 487.39,-103.79"/>
</g>
<!-- ParentsListComponent -->
<g id="node3" class="node">
<title>ParentsListComponent</title>
<polygon fill="#ffffb3" stroke="black" points="340.32,-84.8 195.68,-84.8 195.68,-48.8 340.32,-48.8 340.32,-84.8"/>
<text text-anchor="middle" x="268" y="-62.6" font-family="Times,serif" font-size="14.00">ParentsListComponent</text>
</g>
<!-- ParentsListComponent&#45;&gt;ParentsModule -->
<g id="edge3" class="edge">
<title>ParentsListComponent&#45;&gt;ParentsModule</title>
<path fill="none" stroke="black" d="M268,-84.82C268,-102.17 268,-125.8 268,-125.8 268,-125.8 455.51,-125.8 455.51,-125.8"/>
<polygon fill="black" stroke="black" points="455.51,-129.3 465.51,-125.8 455.51,-122.3 455.51,-129.3"/>
</g>
<!-- ParentsTableComponent -->
<g id="node4" class="node">
<title>ParentsTableComponent</title>
<polygon fill="#ffffb3" stroke="black" points="178.41,-84.8 23.59,-84.8 23.59,-48.8 178.41,-48.8 178.41,-84.8"/>
<text text-anchor="middle" x="101" y="-62.6" font-family="Times,serif" font-size="14.00">ParentsTableComponent</text>
</g>
<!-- ParentsTableComponent&#45;&gt;ParentsModule -->
<g id="edge4" class="edge">
<title>ParentsTableComponent&#45;&gt;ParentsModule</title>
<path fill="none" stroke="black" d="M101,-85.08C101,-106.12 101,-137.8 101,-137.8 101,-137.8 455.53,-137.8 455.53,-137.8"/>
<polygon fill="black" stroke="black" points="455.53,-141.3 465.53,-137.8 455.53,-134.3 455.53,-141.3"/>
</g>
<!-- ParentsRoutingModule -->
<g id="node6" class="node">
<title>ParentsRoutingModule</title>
<polygon fill="#8dd3c7" stroke="black" points="943.88,-84.8 940.88,-88.8 919.88,-88.8 916.88,-84.8 798.12,-84.8 798.12,-48.8 943.88,-48.8 943.88,-84.8"/>
<text text-anchor="middle" x="871" y="-62.6" font-family="Times,serif" font-size="14.00">ParentsRoutingModule</text>
</g>
<!-- ParentsRoutingModule&#45;&gt;ParentsModule -->
<g id="edge5" class="edge">
<title>ParentsRoutingModule&#45;&gt;ParentsModule</title>
<path fill="none" stroke="black" d="M871,-85.08C871,-106.12 871,-137.8 871,-137.8 871,-137.8 576.49,-137.8 576.49,-137.8"/>
<polygon fill="black" stroke="black" points="576.49,-134.3 566.49,-137.8 576.49,-141.3 576.49,-134.3"/>
</g>
<!-- WidgetModule -->
<g id="node7" class="node">
<title>WidgetModule</title>
<polygon fill="#8dd3c7" stroke="black" points="780.26,-84.8 777.26,-88.8 756.26,-88.8 753.26,-84.8 679.74,-84.8 679.74,-48.8 780.26,-48.8 780.26,-84.8"/>
<text text-anchor="middle" x="730" y="-62.6" font-family="Times,serif" font-size="14.00">WidgetModule</text>
</g>
<!-- WidgetModule&#45;&gt;ParentsModule -->
<g id="edge6" class="edge">
<title>WidgetModule&#45;&gt;ParentsModule</title>
<path fill="none" stroke="black" d="M730,-84.82C730,-102.17 730,-125.8 730,-125.8 730,-125.8 576.44,-125.8 576.44,-125.8"/>
<polygon fill="black" stroke="black" points="576.44,-122.3 566.44,-125.8 576.44,-129.3 576.44,-122.3"/>
</g>
</g>
</svg>
